<svg width="624" height="309" viewBox="0 0 624 309" fill="none" xmlns="http://www.w3.org/2000/svg">
<path d="M140.184 40.3257C142.199 41.0586 144.427 40.0189 145.16 38.0036C145.893 35.9883 144.853 33.7605 142.838 33.0276C140.822 32.2948 138.595 33.3344 137.862 35.3497C137.129 37.365 138.168 39.5929 140.184 40.3257Z" fill="white" stroke="white" stroke-width="0.655993"/>
<path d="M130.276 47.6831C132.291 48.416 134.519 47.3764 135.252 45.3611C135.985 43.3457 134.945 41.1179 132.93 40.3851C130.915 39.6522 128.687 40.6918 127.954 42.7071C127.221 44.7225 128.261 46.9503 130.276 47.6831Z" fill="white" stroke="white" stroke-width="0.655993"/>
<path d="M136.754 55.4233L85.879 164.092L92.5667 166.524L137.699 56.8482C138.547 57.8798 139.388 58.4471 139.388 58.4471C139.388 58.4471 139.621 58.6366 140.201 58.9524L95.4945 167.589L97.8266 168.437L141.368 59.5127C142.083 59.8294 143.035 60.2036 144.279 60.6064L100.75 169.5L103.73 170.584L145.691 61.0471C146.581 61.3053 147.576 61.5797 148.707 61.8529L106.645 171.644L112.184 173.658L150.051 62.0951C158.641 62.9656 158.035 48.0988 160.836 40.3957C163.758 32.3603 181.86 31.4964 173.497 27.2175C165.124 22.9275 151.744 24.4741 151.961 32.4105C152.172 40.352 141.122 42.3289 137.263 48.3719C135.417 51.2501 135.834 53.676 136.754 55.4233Z" fill="white" stroke="white" stroke-width="0.655993"/>
<path d="M52.6738 291.595C112.93 312.405 117.49 268.026 114.525 250.396C111.557 232.774 109.767 220.271 117.339 213.097C124.905 205.929 156.7 179.157 139.213 159.021C139.213 159.021 134.493 154.548 128.823 164.063C126.076 168.67 122.012 169.43 117.361 168.59L113.986 178.518L105.129 175.297L79.0841 243.304L89.0479 246.927L84.3995 259.71L52.129 247.975L56.7775 235.192L63.2833 237.558L91.0133 170.161L81.4854 166.696L86.727 155.762C84.6968 151.941 80.3373 145.33 73.4128 142.825L73.4015 142.831C73.2048 142.754 73.015 142.656 72.8079 142.58C64.2053 139.452 54.691 143.889 51.56 152.499C51.3892 152.969 51.2664 153.433 51.1422 153.905L51.0273 153.964C51.0273 153.964 50.985 154.265 50.917 154.797C50.8053 155.346 50.6967 155.894 50.6449 156.449C50.5798 157.078 50.5644 157.709 50.5704 158.338C50.0956 163.928 49.5308 174.654 50.3122 189.274C50.7241 196.868 39.8242 208.065 25.6379 218.073C11.459 228.087 -7.59002 270.783 52.6738 291.595ZM106.097 262.02C108.814 263.008 110.229 266.011 109.236 268.742C108.248 271.459 105.234 272.869 102.511 271.879C99.7838 270.887 98.3792 267.882 99.371 265.154C100.369 262.426 103.369 261.028 106.097 262.02ZM94.9261 277.393C97.6486 278.383 99.0569 281.396 98.0678 284.116C97.0758 286.844 94.0645 288.254 91.3371 287.263C88.6147 286.273 87.2063 283.26 88.2002 280.527C89.1893 277.807 92.2037 276.403 94.9261 277.393ZM78.3709 282.542C81.0885 283.53 82.5024 286.543 81.5124 289.265C80.5206 291.992 77.5062 293.389 74.7862 292.4C72.0588 291.408 70.6456 288.401 71.6374 285.674C72.6274 282.951 75.6436 281.55 78.3709 282.542Z" fill="white" stroke="white" stroke-width="0.655993"/>
<path d="M72.1738 240.791L76.1589 242.24L102.209 174.234L99.2161 173.146L72.1738 240.791Z" fill="white" stroke="white" stroke-width="0.655993"/>
<path d="M66.2025 238.619L69.251 239.727L96.2872 172.081L93.9414 171.228L66.2025 238.619Z" fill="white" stroke="white" stroke-width="0.655993"/>
<path d="M195.844 86.2617C197.619 86.5391 199.228 86.7887 200.67 87.0105C202.112 87.177 203.36 87.3156 204.414 87.4266C205.634 87.593 206.716 87.7316 207.659 87.8426C208.824 88.009 210.571 87.8148 212.901 87.2602C215.23 86.65 217.782 86.0953 220.555 85.5961C223.384 85.0414 226.269 84.7363 229.208 84.6809C232.148 84.5699 234.838 85.0969 237.279 86.2617C239.72 87.4266 241.717 88.5914 243.27 89.7563C244.823 90.9211 246.043 92.1691 246.931 93.5004C247.874 94.7762 248.539 96.1352 248.928 97.5773C249.316 99.0195 249.538 100.6 249.593 102.32C249.538 104.871 248.928 107.34 247.763 109.725C247.263 110.723 246.598 111.777 245.766 112.887C244.989 113.941 244.019 114.967 242.854 115.965C241.689 116.964 240.302 117.907 238.694 118.794C237.14 119.682 235.31 120.458 233.202 121.124C235.254 121.734 236.946 122.455 238.278 123.287C239.664 124.119 240.774 124.896 241.606 125.617C242.604 126.504 243.353 127.364 243.852 128.196C244.462 129.361 244.878 130.359 245.1 131.191C245.322 132.023 245.461 132.828 245.516 133.604C245.627 134.325 245.766 135.074 245.932 135.851C246.099 136.627 246.459 137.515 247.014 138.513C247.458 139.29 247.985 140.094 248.595 140.926C249.149 141.647 249.787 142.424 250.508 143.256C251.285 144.088 252.228 144.892 253.337 145.669C251.784 145.724 250.342 145.752 249.011 145.752C247.735 145.752 246.626 145.752 245.683 145.752C244.573 145.752 243.519 145.724 242.521 145.669C241.522 145.613 240.274 145.586 238.777 145.586C237.501 145.586 235.865 145.586 233.868 145.586C231.926 145.586 229.569 145.613 226.796 145.669C228.016 144.726 229.014 143.783 229.791 142.84C230.567 141.897 231.178 141.037 231.621 140.261C232.121 139.373 232.481 138.513 232.703 137.681C232.98 136.184 233.008 134.63 232.786 133.022C232.62 131.635 232.176 130.11 231.455 128.446C230.734 126.726 229.569 125.007 227.96 123.287C226.352 123.564 224.993 123.786 223.883 123.953C222.829 124.064 221.914 124.175 221.138 124.286C220.25 124.396 219.529 124.48 218.974 124.535C218.475 124.591 217.921 124.646 217.31 124.702C216.811 124.757 216.256 124.84 215.646 124.951C215.092 125.007 214.565 125.09 214.065 125.201C213.954 127.586 213.954 129.666 214.065 131.441C214.176 133.161 214.315 134.603 214.481 135.768C214.703 137.154 214.953 138.347 215.23 139.345C215.508 140.344 215.896 141.314 216.395 142.257C216.783 143.034 217.283 143.866 217.893 144.754C218.503 145.586 219.196 146.279 219.973 146.834C218.531 146.834 217.144 146.834 215.813 146.834C214.537 146.834 213.372 146.806 212.318 146.75C211.098 146.75 209.933 146.723 208.824 146.667C207.714 146.612 206.466 146.584 205.079 146.584C203.915 146.584 202.528 146.584 200.919 146.584C199.366 146.584 197.674 146.612 195.844 146.667C197.286 145.17 198.423 143.894 199.255 142.84C200.087 141.786 200.725 140.898 201.169 140.177C201.668 139.401 201.973 138.735 202.084 138.18C202.195 137.293 202.278 135.712 202.334 133.438C202.445 131.108 202.528 128.446 202.583 125.45C202.639 122.455 202.667 119.321 202.667 116.048C202.667 112.776 202.639 109.725 202.583 106.896C202.528 104.012 202.472 101.543 202.417 99.491C202.362 97.4387 202.306 96.1352 202.251 95.5805C202.084 94.582 201.724 93.5836 201.169 92.5852C200.725 91.6977 200.087 90.6992 199.255 89.5898C198.423 88.4805 197.286 87.3711 195.844 86.2617ZM227.295 115.549C227.849 115.216 228.321 114.884 228.709 114.551C229.097 114.218 229.43 113.691 229.708 112.97C229.985 112.193 230.207 111.112 230.373 109.725C230.595 108.338 230.845 106.452 231.122 104.067C231.344 101.682 231.178 99.7129 230.623 98.1598C230.124 96.6066 229.43 95.3863 228.543 94.4988C227.711 93.5559 226.768 92.918 225.714 92.5852C224.715 92.1969 223.828 92.0027 223.051 92.0027C221.498 92.0027 219.973 92.4742 218.475 93.4172C216.978 94.3602 215.84 95.6359 215.064 97.2445C214.787 97.9656 214.537 99.1582 214.315 100.822C214.149 102.264 214.038 104.261 213.982 106.813C213.927 109.364 214.01 112.72 214.232 116.88C216.34 117.213 218.198 117.352 219.806 117.296C221.415 117.186 222.774 116.991 223.883 116.714C225.215 116.437 226.352 116.048 227.295 115.549ZM282.874 84.2648C285.87 84.3758 288.893 84.9305 291.944 85.9289C295.05 86.8719 297.906 88.425 300.513 90.5883C303.121 92.6961 305.339 95.4418 307.17 98.8254C309 102.154 310.137 106.23 310.581 111.056C310.969 114.995 310.47 118.905 309.083 122.788C307.752 126.615 305.894 130.138 303.509 133.355C301.124 136.572 298.378 139.318 295.272 141.592C292.165 143.811 289.059 145.28 285.953 146.002C284.067 146.445 281.987 146.501 279.713 146.168C277.494 145.78 275.22 145.086 272.89 144.088C270.616 143.034 268.369 141.703 266.151 140.094C263.987 138.486 262.018 136.655 260.243 134.603C258.468 132.495 256.971 130.221 255.75 127.78C254.585 125.339 253.864 122.788 253.587 120.125C253.31 117.907 253.282 115.466 253.504 112.804C253.781 110.086 254.308 107.395 255.085 104.733C255.917 102.015 257.054 99.4078 258.496 96.9117C259.994 94.3602 261.879 92.1414 264.154 90.2555C266.428 88.3141 269.09 86.8164 272.141 85.7625C275.247 84.6531 278.825 84.1539 282.874 84.2648ZM267.981 117.962C267.204 123.897 267.759 128.668 269.645 132.273C271.587 135.879 274.499 138.07 278.381 138.846C280.267 139.234 282.07 138.846 283.79 137.681C285.565 136.461 287.173 134.714 288.615 132.439C290.058 130.165 291.306 127.503 292.36 124.452C293.413 121.401 294.19 118.212 294.689 114.884C295.188 111.555 295.216 108.56 294.772 105.898C294.384 103.18 293.691 100.878 292.692 98.9918C291.694 97.0504 290.474 95.5527 289.031 94.4988C287.645 93.4449 286.203 92.8625 284.705 92.7516C282.098 92.5852 279.824 93.2785 277.882 94.8316C275.941 96.3293 274.304 98.2984 272.973 100.739C271.642 103.18 270.56 105.925 269.728 108.976C268.952 112.027 268.369 115.022 267.981 117.962ZM337.622 85.5129C339.563 85.5129 341.311 85.8457 342.864 86.5113C344.472 87.1215 345.942 87.8148 347.274 88.5914C348.66 89.368 349.964 90.0891 351.184 90.7547C352.404 91.3648 353.653 91.6699 354.928 91.6699C355.927 91.6145 357.064 91.4758 358.34 91.2539C359.449 91.032 360.725 90.6992 362.167 90.2555C363.665 89.7563 365.329 89.0352 367.159 88.0922C365.329 89.8672 363.831 91.3648 362.666 92.5852C361.557 93.75 360.697 94.7207 360.087 95.4973C359.366 96.3848 358.839 97.0781 358.506 97.5773C358.173 98.1875 357.674 99.1027 357.008 100.323C356.398 101.432 355.566 102.93 354.512 104.816C353.458 106.646 352.127 109.059 350.519 112.055C350.519 108.227 350.13 105.26 349.354 103.152C348.633 101.044 347.828 99.4355 346.941 98.3262C345.887 97.0504 344.694 96.2461 343.363 95.9133C342.143 95.7469 340.922 95.9688 339.702 96.5789C338.482 97.1336 337.262 97.9656 336.041 99.075C334.876 100.184 333.739 101.516 332.63 103.069C331.576 104.566 330.605 106.147 329.718 107.811C328.886 109.475 328.192 111.167 327.638 112.887C327.083 114.551 326.722 116.104 326.556 117.546C326.39 118.822 326.362 120.32 326.473 122.039C326.584 123.703 326.833 125.423 327.222 127.198C327.61 128.917 328.109 130.609 328.719 132.273C329.329 133.937 330.078 135.435 330.966 136.766C331.909 138.042 332.963 139.096 334.128 139.928C335.292 140.704 336.624 141.065 338.121 141.009C339.785 140.898 341.422 140.399 343.03 139.512C344.417 138.791 345.831 137.681 347.274 136.184C348.716 134.63 349.964 132.439 351.018 129.611L363.332 131.857C359.782 136.184 356.315 139.429 352.931 141.592C349.603 143.755 346.608 145.28 343.946 146.168C340.839 147.166 337.899 147.638 335.126 147.582C331.631 147.194 328.359 146.14 325.308 144.421C322.257 142.701 319.622 140.621 317.404 138.18C315.24 135.684 313.549 132.966 312.328 130.027C311.108 127.087 310.581 124.202 310.747 121.373C310.858 119.488 311.247 117.296 311.912 114.8C312.578 112.249 313.465 109.642 314.575 106.979C315.74 104.317 317.126 101.71 318.735 99.1582C320.344 96.6066 322.119 94.3324 324.06 92.3355C326.001 90.2832 328.109 88.6469 330.383 87.4266C332.713 86.1508 335.126 85.5129 337.622 85.5129ZM364.829 87.593C366.715 87.8703 368.379 88.0645 369.822 88.1754C371.319 88.2863 372.567 88.3973 373.566 88.5082C374.731 88.6191 375.729 88.6746 376.561 88.6746H379.806C381.969 88.6746 385.547 88.5914 390.539 88.425C389.319 88.8133 388.293 89.368 387.461 90.0891C386.684 90.8102 386.046 91.559 385.547 92.3355C384.937 93.223 384.493 94.1383 384.216 95.0813C383.883 96.2461 383.578 97.7992 383.301 99.7406C383.023 101.46 382.746 103.707 382.469 106.48C382.247 109.254 382.025 112.72 381.803 116.88C384.188 114.163 386.268 111.75 388.043 109.642C389.874 107.534 391.454 105.676 392.786 104.067C394.117 102.459 395.226 101.072 396.114 99.907C397.057 98.7422 397.833 97.7438 398.444 96.9117C399.886 95.0258 400.718 93.75 400.94 93.0844C400.995 92.6961 400.967 92.2246 400.856 91.6699C400.746 91.2262 400.579 90.6992 400.357 90.0891C400.135 89.4234 399.803 88.7023 399.359 87.9258C401.578 88.0367 403.463 88.1199 405.017 88.1754C406.625 88.2309 407.956 88.2863 409.01 88.3418C410.231 88.3973 411.229 88.425 412.006 88.425H415.5C416.776 88.425 418.44 88.425 420.492 88.425C422.545 88.3695 425.124 88.3141 428.23 88.2586C426.178 88.7578 424.237 89.4234 422.406 90.2555C420.576 91.0875 418.939 91.8918 417.497 92.6684C415.833 93.6113 414.28 94.582 412.838 95.5805C411.396 96.6898 409.787 97.9934 408.012 99.491C406.514 100.767 404.767 102.348 402.77 104.234C400.773 106.064 398.61 108.2 396.28 110.64C398.776 115.521 400.94 119.543 402.77 122.705C404.656 125.811 406.237 128.307 407.513 130.193C408.955 132.412 410.175 134.104 411.174 135.268C412.172 136.322 413.337 137.404 414.668 138.513C415.778 139.456 417.164 140.51 418.828 141.675C420.492 142.784 422.406 143.866 424.569 144.92L400.856 146.085C401.189 145.641 401.383 145.114 401.439 144.504C401.55 143.838 401.605 143.228 401.605 142.673C401.605 142.063 401.55 141.398 401.439 140.677C401.217 139.789 400.635 138.347 399.692 136.35C398.915 134.63 397.722 132.218 396.114 129.111C394.505 125.95 392.287 121.789 389.458 116.631L382.385 124.036C382.108 125.811 381.969 127.42 381.969 128.862C381.969 130.304 382.025 131.496 382.136 132.439C382.302 133.604 382.524 134.603 382.801 135.435C383.134 136.267 383.606 137.21 384.216 138.264C384.715 139.207 385.381 140.316 386.213 141.592C387.045 142.868 388.099 144.282 389.374 145.835C388.099 145.502 386.823 145.28 385.547 145.17C384.271 145.003 383.106 144.892 382.053 144.837C380.832 144.781 379.667 144.809 378.558 144.92C377.393 145.031 376.034 145.197 374.481 145.419C373.15 145.641 371.513 145.918 369.572 146.251C367.631 146.584 365.412 147 362.916 147.499C364.136 146.778 365.107 146.002 365.828 145.17C366.549 144.338 367.131 143.533 367.575 142.757C368.074 141.869 368.407 141.009 368.574 140.177C368.685 139.456 368.768 137.903 368.823 135.518C368.934 133.133 368.99 130.359 368.99 127.198C369.045 123.98 369.045 120.597 368.99 117.047C368.934 113.497 368.879 110.169 368.823 107.063C368.768 103.956 368.685 101.321 368.574 99.1582C368.518 96.9395 368.463 95.5805 368.407 95.0813C368.241 94.3047 368.019 93.4727 367.742 92.5852C367.464 91.8086 367.076 91.0043 366.577 90.1723C366.133 89.2848 365.551 88.425 364.829 87.593ZM498.787 86.0953C498.01 87.8703 497.317 89.4234 496.706 90.7547C496.096 92.0859 495.569 93.223 495.126 94.166C494.626 95.2199 494.21 96.1629 493.878 96.9949C493.6 97.6051 493.24 98.4371 492.796 99.491C492.352 100.434 491.797 101.682 491.132 103.235C490.522 104.733 489.717 106.674 488.719 109.059C488.22 107.007 487.61 105.204 486.888 103.651C486.167 102.098 485.391 100.739 484.559 99.5742C483.727 98.4094 482.839 97.4664 481.896 96.7453C481.009 95.9688 480.121 95.3309 479.234 94.8316C477.181 93.7223 475.018 93.1121 472.744 93.0012C469.749 93.1676 467.391 93.6668 465.672 94.4988C464.008 95.2754 462.787 96.1906 462.011 97.2445C461.234 98.243 460.818 99.2969 460.763 100.406C460.707 101.46 460.846 102.348 461.179 103.069C461.456 103.734 462.427 104.511 464.091 105.398C465.81 106.286 467.863 107.312 470.248 108.477C472.688 109.586 475.296 110.862 478.069 112.304C480.842 113.691 483.394 115.244 485.724 116.964C488.109 118.628 490.106 120.458 491.714 122.455C493.378 124.396 494.294 126.477 494.46 128.695C494.626 131.524 494.599 134.076 494.377 136.35C494.155 138.624 493.378 140.566 492.047 142.174C490.716 143.783 488.636 145.059 485.807 146.002C483.033 146.945 479.178 147.527 474.242 147.749C469.138 147.971 464.951 147.693 461.678 146.917C458.405 146.14 455.743 145.086 453.69 143.755C451.694 142.424 450.196 140.954 449.197 139.345C448.255 137.737 447.561 136.211 447.117 134.769C446.674 133.271 446.369 131.996 446.202 130.942C446.036 129.832 445.758 129.167 445.37 128.945C444.926 128.668 444.483 128.418 444.039 128.196C443.651 127.974 443.235 127.78 442.791 127.614C442.347 127.392 441.903 127.198 441.46 127.031L465.672 123.121C464.285 124.23 463.203 125.256 462.427 126.199C461.706 127.142 461.151 127.974 460.763 128.695C460.319 129.527 460.014 130.304 459.847 131.025C459.737 131.802 459.986 132.772 460.596 133.937C461.206 135.102 462.038 136.239 463.092 137.348C464.202 138.402 465.478 139.29 466.92 140.011C468.362 140.732 469.86 141.037 471.413 140.926C473.354 140.76 474.935 140.288 476.155 139.512C477.376 138.68 478.291 137.654 478.901 136.433C479.567 135.213 479.955 133.882 480.066 132.439C480.177 130.997 480.038 129.583 479.65 128.196C479.317 126.754 478.762 125.423 477.986 124.202C477.209 122.927 476.294 121.873 475.24 121.041C474.297 120.375 472.827 119.737 470.83 119.127C468.889 118.517 466.698 117.851 464.257 117.13C461.872 116.409 459.404 115.577 456.852 114.634C454.356 113.691 452.082 112.526 450.03 111.139C448.033 109.753 446.424 108.116 445.204 106.23C444.039 104.345 443.595 102.07 443.872 99.4078C444.094 97.1336 444.815 95.2477 446.036 93.75C447.312 92.1969 448.892 90.9766 450.778 90.0891C452.72 89.1461 454.855 88.4527 457.185 88.009C459.57 87.5652 461.983 87.3156 464.424 87.2602C466.92 87.1492 469.36 87.177 471.746 87.3434C474.186 87.5098 476.377 87.7039 478.319 87.9258C480.26 88.1477 481.896 88.3695 483.228 88.5914C484.614 88.7578 485.474 88.8688 485.807 88.9242C487.249 89.0352 488.691 89.0074 490.133 88.841C491.409 88.7301 492.796 88.4805 494.294 88.0922C495.847 87.6484 497.344 86.9828 498.787 86.0953ZM498.371 89.673C500.256 89.8949 501.837 90.0613 503.113 90.1723C504.444 90.2277 505.526 90.3109 506.358 90.4219C507.356 90.5328 508.133 90.5883 508.688 90.5883C509.298 90.6438 510.213 90.616 511.433 90.5051C512.487 90.3941 513.902 90.2555 515.677 90.0891C517.507 89.9227 519.837 89.673 522.666 89.3402C521.39 90.4496 520.364 91.5313 519.587 92.5852C518.866 93.5836 518.312 94.4711 517.923 95.2477C517.424 96.1906 517.119 97.0781 517.008 97.9102C516.786 99.2414 516.592 101.072 516.426 103.402C516.315 105.676 516.204 108.172 516.093 110.89C515.982 113.608 515.926 116.409 515.926 119.293C515.926 122.178 515.954 124.923 516.01 127.53C516.121 130.082 516.287 132.356 516.509 134.353C516.786 136.35 517.119 137.792 517.507 138.68C518.062 139.678 518.644 140.677 519.254 141.675C519.809 142.507 520.475 143.367 521.251 144.254C522.028 145.142 522.915 145.863 523.914 146.418C520.641 146.251 518.034 146.168 516.093 146.168H513.097C512.21 146.168 511.073 146.223 509.686 146.334C508.521 146.445 507.051 146.556 505.276 146.667C503.501 146.778 501.366 146.945 498.87 147.166C500.146 145.78 501.144 144.448 501.865 143.173C502.586 141.897 503.169 140.788 503.612 139.845C504.112 138.735 504.444 137.681 504.611 136.683C504.833 135.241 504.999 133.466 505.11 131.358C505.276 129.195 505.387 126.893 505.443 124.452C505.498 121.956 505.498 119.432 505.443 116.88C505.443 114.273 505.387 111.777 505.276 109.392C505.165 107.007 504.999 104.844 504.777 102.902C504.611 100.961 504.389 99.4078 504.112 98.243C503.945 97.5219 503.612 96.7176 503.113 95.8301C502.669 95.0535 502.059 94.166 501.283 93.1676C500.562 92.1137 499.591 90.9488 498.371 89.673ZM523.914 88.009C526.41 88.4527 528.462 88.7578 530.071 88.9242C531.679 89.0906 532.983 89.2293 533.981 89.3402C535.146 89.4512 536.062 89.4789 536.727 89.4234H539.223C540.111 89.4234 541.22 89.4234 542.551 89.4234C543.938 89.368 545.658 89.3402 547.71 89.3402C548.875 92.0582 549.929 94.5543 550.872 96.8285C551.87 99.1027 552.702 101.044 553.368 102.653C554.144 104.594 554.865 106.341 555.531 107.895C556.308 109.836 557.14 111.971 558.027 114.301C558.915 116.631 559.719 118.822 560.44 120.874C561.217 122.927 561.854 124.618 562.354 125.95C562.853 127.281 563.103 127.891 563.103 127.78C563.103 127.725 563.13 127.17 563.186 126.116C563.241 125.007 563.297 123.648 563.352 122.039C563.408 120.375 563.463 118.572 563.519 116.631C563.629 114.634 563.685 112.72 563.685 110.89C563.74 109.004 563.768 107.284 563.768 105.731C563.768 104.178 563.713 103.013 563.602 102.237C563.435 101.294 563.103 100.212 562.603 98.9918C562.16 97.9379 561.549 96.6898 560.773 95.2477C559.996 93.75 558.915 92.0582 557.528 90.1723C559.802 90.2277 561.66 90.2555 563.103 90.2555C564.545 90.2555 565.71 90.2555 566.597 90.2555C567.595 90.2555 568.372 90.2277 568.927 90.1723C569.648 90.1723 570.535 90.1168 571.589 90.0059C572.532 89.8949 573.697 89.8117 575.084 89.7563C576.526 89.6453 578.301 89.5066 580.409 89.3402C579.188 90.4496 578.218 91.5035 577.497 92.502C576.776 93.5004 576.193 94.3879 575.749 95.1645C575.25 96.052 574.917 96.884 574.751 97.6605C574.529 98.659 574.335 100.295 574.169 102.57C574.058 104.788 573.919 107.284 573.753 110.058C573.642 112.831 573.531 115.716 573.42 118.711C573.309 121.706 573.198 124.452 573.087 126.948C573.087 128.834 573.031 130.859 572.92 133.022C572.81 134.852 572.699 136.932 572.588 139.262C572.477 141.536 572.338 143.838 572.172 146.168L564.767 146.334C562.603 142.507 560.773 139.234 559.275 136.516C557.833 133.743 556.64 131.469 555.697 129.694C554.644 127.641 553.756 125.922 553.035 124.535C552.425 123.204 551.62 121.679 550.622 119.959C549.79 118.517 548.736 116.742 547.46 114.634C546.24 112.526 544.77 110.113 543.051 107.395C542.884 111.223 542.801 114.495 542.801 117.213C542.856 119.876 542.94 122.095 543.051 123.87C543.217 125.922 543.411 127.641 543.633 129.028C543.91 130.359 544.299 131.857 544.798 133.521C545.242 134.963 545.769 136.655 546.379 138.596C547.044 140.538 547.849 142.729 548.792 145.17C545.519 145.003 543.078 144.92 541.47 144.92H538.974C538.197 144.92 537.143 145.003 535.812 145.17C534.703 145.28 533.177 145.447 531.236 145.669C529.35 145.891 526.992 146.196 524.163 146.584C525.495 144.975 526.549 143.505 527.325 142.174C528.157 140.788 528.795 139.623 529.239 138.68C529.794 137.57 530.182 136.6 530.404 135.768C530.57 134.88 530.681 133.355 530.737 131.191C530.792 128.973 530.792 126.477 530.737 123.703C530.737 120.874 530.681 117.907 530.57 114.8C530.515 111.694 530.431 108.81 530.32 106.147C530.21 103.485 530.071 101.211 529.904 99.3246C529.794 97.4387 529.71 96.2738 529.655 95.8301C529.488 95.109 529.156 94.3324 528.656 93.5004C528.213 92.7793 527.63 91.975 526.909 91.0875C526.188 90.1445 525.19 89.1184 523.914 88.009ZM156.863 192.59C160.191 192.867 163.104 193.034 165.6 193.089C168.151 193.145 170.314 193.172 172.089 193.172C174.142 193.172 175.917 193.117 177.414 193.006C178.968 192.839 180.992 192.618 183.488 192.34C185.596 192.063 188.314 191.702 191.642 191.259C194.97 190.759 199.02 190.121 203.79 189.345C203.18 190.288 202.653 191.286 202.209 192.34C201.821 193.339 201.488 194.254 201.211 195.086C200.933 196.084 200.684 197.055 200.462 197.998C200.295 199.052 200.101 200.355 199.879 201.909C199.657 203.24 199.38 204.932 199.047 206.984C198.77 208.981 198.409 211.366 197.966 214.139C196.302 209.813 194.61 206.485 192.89 204.155C191.226 201.825 189.673 200.106 188.231 198.996C186.567 197.721 184.986 197 183.488 196.833C181.325 196.833 179.55 197.249 178.163 198.081C176.777 198.913 175.639 199.995 174.752 201.326C173.92 202.602 173.282 204.016 172.838 205.57C172.395 207.067 172.089 208.537 171.923 209.979C171.757 211.366 171.646 212.614 171.59 213.723C171.535 214.777 171.479 215.498 171.424 215.887C173.365 215.776 175.002 215.637 176.333 215.471C177.664 215.304 178.718 215.138 179.495 214.971C180.438 214.75 181.186 214.528 181.741 214.306C182.573 213.862 183.405 213.335 184.237 212.725C184.958 212.17 185.707 211.505 186.484 210.728C187.316 209.952 188.037 209.009 188.647 207.899C188.314 209.896 188.009 211.56 187.732 212.891C187.51 214.223 187.316 215.277 187.149 216.053C186.927 216.996 186.789 217.717 186.733 218.216C186.622 218.716 186.484 219.409 186.317 220.296C186.151 221.073 185.957 222.071 185.735 223.292C185.513 224.512 185.263 226.038 184.986 227.868C184.32 226.703 183.627 225.76 182.906 225.039C182.185 224.263 181.519 223.652 180.909 223.209C180.188 222.709 179.495 222.321 178.829 222.044C178.108 221.822 177.331 221.6 176.499 221.378C175.778 221.212 174.918 221.045 173.92 220.879C172.977 220.657 171.951 220.463 170.841 220.296C170.952 223.292 171.119 225.871 171.341 228.034C171.563 230.142 171.757 231.917 171.923 233.359C172.145 235.023 172.367 236.41 172.589 237.52C172.866 238.629 173.31 239.821 173.92 241.097C174.419 242.207 175.113 243.482 176 244.925C176.943 246.311 178.136 247.809 179.578 249.418C178.468 249.14 177.304 248.946 176.083 248.835C174.863 248.724 173.781 248.641 172.838 248.586C171.673 248.53 170.564 248.53 169.51 248.586C168.401 248.641 167.18 248.752 165.849 248.918C164.74 249.029 163.464 249.196 162.022 249.418C160.58 249.639 159.054 249.889 157.446 250.166C158.389 249.223 159.165 248.28 159.775 247.338C160.386 246.395 160.829 245.563 161.107 244.841C161.439 244.009 161.661 243.205 161.772 242.429C161.828 241.763 161.855 240.321 161.855 238.102C161.855 235.828 161.828 233.193 161.772 230.198C161.717 227.147 161.634 223.93 161.523 220.546C161.412 217.163 161.301 214.001 161.19 211.061C161.079 208.066 160.94 205.514 160.774 203.406C160.663 201.298 160.524 200.023 160.358 199.579C160.136 199.024 159.886 198.386 159.609 197.665C159.165 196.5 158.25 194.809 156.863 192.59ZM196.135 189.262C197.91 189.539 199.519 189.789 200.961 190.011C202.403 190.177 203.651 190.316 204.705 190.427C205.925 190.593 207.007 190.732 207.95 190.843C209.115 191.009 210.862 190.815 213.192 190.26C215.521 189.65 218.073 189.095 220.846 188.596C223.675 188.041 226.56 187.736 229.5 187.681C232.439 187.57 235.13 188.097 237.57 189.262C240.011 190.427 242.008 191.591 243.561 192.756C245.114 193.921 246.334 195.169 247.222 196.5C248.165 197.776 248.83 199.135 249.219 200.577C249.607 202.02 249.829 203.6 249.884 205.32C249.829 207.871 249.219 210.34 248.054 212.725C247.555 213.723 246.889 214.777 246.057 215.887C245.28 216.941 244.31 217.967 243.145 218.965C241.98 219.964 240.593 220.907 238.985 221.794C237.432 222.682 235.601 223.458 233.493 224.124C235.546 224.734 237.238 225.455 238.569 226.287C239.955 227.119 241.065 227.896 241.897 228.617C242.895 229.504 243.644 230.364 244.143 231.196C244.754 232.361 245.17 233.359 245.391 234.191C245.613 235.023 245.752 235.828 245.807 236.604C245.918 237.325 246.057 238.074 246.223 238.851C246.39 239.627 246.75 240.515 247.305 241.513C247.749 242.29 248.276 243.094 248.886 243.926C249.441 244.647 250.079 245.424 250.8 246.256C251.576 247.088 252.519 247.892 253.629 248.669C252.075 248.724 250.633 248.752 249.302 248.752C248.026 248.752 246.917 248.752 245.974 248.752C244.864 248.752 243.811 248.724 242.812 248.669C241.814 248.613 240.566 248.586 239.068 248.586C237.792 248.586 236.156 248.586 234.159 248.586C232.218 248.586 229.86 248.613 227.087 248.669C228.307 247.726 229.305 246.783 230.082 245.84C230.859 244.897 231.469 244.037 231.913 243.261C232.412 242.373 232.772 241.513 232.994 240.681C233.271 239.184 233.299 237.63 233.077 236.022C232.911 234.635 232.467 233.11 231.746 231.446C231.025 229.726 229.86 228.007 228.252 226.287C226.643 226.564 225.284 226.786 224.175 226.953C223.121 227.064 222.205 227.175 221.429 227.286C220.541 227.396 219.82 227.48 219.266 227.535C218.766 227.591 218.212 227.646 217.602 227.702C217.102 227.757 216.548 227.84 215.938 227.951C215.383 228.007 214.856 228.09 214.357 228.201C214.246 230.586 214.246 232.666 214.357 234.441C214.468 236.161 214.606 237.603 214.773 238.768C214.995 240.154 215.244 241.347 215.521 242.345C215.799 243.344 216.187 244.314 216.686 245.257C217.075 246.034 217.574 246.866 218.184 247.754C218.794 248.586 219.488 249.279 220.264 249.834C218.822 249.834 217.435 249.834 216.104 249.834C214.828 249.834 213.663 249.806 212.609 249.75C211.389 249.75 210.224 249.723 209.115 249.667C208.005 249.612 206.757 249.584 205.371 249.584C204.206 249.584 202.819 249.584 201.211 249.584C199.657 249.584 197.966 249.612 196.135 249.667C197.577 248.17 198.714 246.894 199.546 245.84C200.379 244.786 201.016 243.898 201.46 243.177C201.959 242.401 202.264 241.735 202.375 241.18C202.486 240.293 202.57 238.712 202.625 236.438C202.736 234.108 202.819 231.446 202.875 228.45C202.93 225.455 202.958 222.321 202.958 219.048C202.958 215.776 202.93 212.725 202.875 209.896C202.819 207.012 202.764 204.543 202.708 202.491C202.653 200.439 202.597 199.135 202.542 198.58C202.375 197.582 202.015 196.584 201.46 195.585C201.016 194.698 200.379 193.699 199.546 192.59C198.714 191.48 197.577 190.371 196.135 189.262ZM227.586 218.549C228.141 218.216 228.612 217.884 229 217.551C229.389 217.218 229.721 216.691 229.999 215.97C230.276 215.193 230.498 214.112 230.664 212.725C230.886 211.338 231.136 209.452 231.413 207.067C231.635 204.682 231.469 202.713 230.914 201.16C230.415 199.607 229.721 198.386 228.834 197.499C228.002 196.556 227.059 195.918 226.005 195.585C225.007 195.197 224.119 195.003 223.343 195.003C221.789 195.003 220.264 195.474 218.766 196.417C217.269 197.36 216.132 198.636 215.355 200.245C215.078 200.966 214.828 202.158 214.606 203.822C214.44 205.264 214.329 207.261 214.273 209.813C214.218 212.364 214.301 215.72 214.523 219.88C216.631 220.213 218.489 220.352 220.098 220.296C221.706 220.186 223.065 219.991 224.175 219.714C225.506 219.437 226.643 219.048 227.586 218.549ZM283.166 187.265C286.161 187.376 289.184 187.93 292.235 188.929C295.341 189.872 298.198 191.425 300.805 193.588C303.412 195.696 305.63 198.442 307.461 201.825C309.291 205.154 310.429 209.23 310.872 214.056C311.261 217.995 310.761 221.905 309.375 225.788C308.043 229.615 306.185 233.138 303.8 236.355C301.415 239.572 298.669 242.318 295.563 244.592C292.457 246.811 289.35 248.28 286.244 249.002C284.358 249.445 282.278 249.501 280.004 249.168C277.785 248.78 275.511 248.086 273.181 247.088C270.907 246.034 268.661 244.703 266.442 243.094C264.279 241.486 262.309 239.655 260.534 237.603C258.759 235.495 257.262 233.221 256.041 230.78C254.877 228.339 254.155 225.788 253.878 223.125C253.601 220.907 253.573 218.466 253.795 215.804C254.072 213.086 254.599 210.395 255.376 207.733C256.208 205.015 257.345 202.408 258.787 199.912C260.285 197.36 262.171 195.141 264.445 193.255C266.719 191.314 269.382 189.816 272.432 188.763C275.539 187.653 279.116 187.154 283.166 187.265ZM268.272 220.962C267.496 226.897 268.05 231.668 269.936 235.273C271.878 238.879 274.79 241.07 278.673 241.846C280.559 242.234 282.361 241.846 284.081 240.681C285.856 239.461 287.464 237.714 288.907 235.439C290.349 233.165 291.597 230.503 292.651 227.452C293.705 224.401 294.481 221.212 294.98 217.884C295.48 214.555 295.507 211.56 295.064 208.898C294.675 206.18 293.982 203.878 292.984 201.992C291.985 200.05 290.765 198.553 289.323 197.499C287.936 196.445 286.494 195.863 284.996 195.752C282.389 195.585 280.115 196.279 278.173 197.832C276.232 199.329 274.596 201.298 273.264 203.739C271.933 206.18 270.852 208.925 270.02 211.976C269.243 215.027 268.661 218.022 268.272 220.962ZM311.455 191.009C313.951 191.453 316.003 191.758 317.612 191.924C319.22 192.091 320.524 192.229 321.522 192.34C322.687 192.451 323.602 192.479 324.268 192.423H326.764C327.652 192.423 328.761 192.423 330.092 192.423C331.479 192.368 333.198 192.34 335.251 192.34C336.416 195.058 337.47 197.554 338.413 199.829C339.411 202.103 340.243 204.044 340.909 205.653C341.685 207.594 342.406 209.341 343.072 210.895C343.848 212.836 344.68 214.971 345.568 217.301C346.455 219.631 347.26 221.822 347.981 223.874C348.757 225.927 349.395 227.618 349.895 228.95C350.394 230.281 350.643 230.891 350.643 230.78C350.643 230.725 350.671 230.17 350.727 229.116C350.782 228.007 350.838 226.648 350.893 225.039C350.948 223.375 351.004 221.572 351.059 219.631C351.17 217.634 351.226 215.72 351.226 213.89C351.281 212.004 351.309 210.284 351.309 208.731C351.309 207.178 351.254 206.013 351.143 205.237C350.976 204.294 350.643 203.212 350.144 201.992C349.7 200.938 349.09 199.69 348.314 198.248C347.537 196.75 346.455 195.058 345.069 193.172C347.343 193.228 349.201 193.255 350.643 193.255C352.086 193.255 353.25 193.255 354.138 193.255C355.136 193.255 355.913 193.228 356.468 193.172C357.189 193.172 358.076 193.117 359.13 193.006C360.073 192.895 361.238 192.812 362.625 192.756C364.067 192.645 365.842 192.507 367.95 192.34C366.729 193.45 365.759 194.504 365.038 195.502C364.316 196.5 363.734 197.388 363.29 198.164C362.791 199.052 362.458 199.884 362.292 200.661C362.07 201.659 361.876 203.295 361.709 205.57C361.598 207.788 361.46 210.284 361.293 213.058C361.182 215.831 361.071 218.716 360.961 221.711C360.85 224.706 360.739 227.452 360.628 229.948C360.628 231.834 360.572 233.859 360.461 236.022C360.35 237.852 360.239 239.932 360.129 242.262C360.018 244.536 359.879 246.838 359.713 249.168L352.307 249.334C350.144 245.507 348.314 242.234 346.816 239.516C345.374 236.743 344.181 234.469 343.238 232.694C342.184 230.641 341.297 228.922 340.576 227.535C339.966 226.204 339.161 224.679 338.163 222.959C337.331 221.517 336.277 219.742 335.001 217.634C333.781 215.526 332.311 213.113 330.591 210.395C330.425 214.223 330.342 217.495 330.342 220.213C330.397 222.876 330.48 225.095 330.591 226.87C330.758 228.922 330.952 230.641 331.174 232.028C331.451 233.359 331.839 234.857 332.339 236.521C332.782 237.963 333.309 239.655 333.92 241.596C334.585 243.538 335.389 245.729 336.332 248.17C333.06 248.003 330.619 247.92 329.011 247.92H326.514C325.738 247.92 324.684 248.003 323.353 248.17C322.243 248.28 320.718 248.447 318.777 248.669C316.891 248.891 314.533 249.196 311.704 249.584C313.036 247.975 314.089 246.505 314.866 245.174C315.698 243.788 316.336 242.623 316.78 241.68C317.334 240.57 317.723 239.6 317.945 238.768C318.111 237.88 318.222 236.355 318.277 234.191C318.333 231.973 318.333 229.477 318.277 226.703C318.277 223.874 318.222 220.907 318.111 217.8C318.055 214.694 317.972 211.81 317.861 209.147C317.75 206.485 317.612 204.211 317.445 202.325C317.334 200.439 317.251 199.274 317.196 198.83C317.029 198.109 316.696 197.332 316.197 196.5C315.754 195.779 315.171 194.975 314.45 194.088C313.729 193.145 312.73 192.118 311.455 191.009ZM365.038 189.262C368.754 189.705 371.971 190.038 374.689 190.26C377.407 190.427 379.654 190.565 381.429 190.676C383.481 190.787 385.2 190.815 386.587 190.759C388.029 190.704 389.998 190.565 392.495 190.343C394.602 190.177 397.376 189.955 400.815 189.678C404.254 189.345 408.553 188.901 413.711 188.346C413.767 189.622 413.795 190.87 413.795 192.091C413.85 193.255 413.905 194.282 413.961 195.169C414.016 196.223 414.044 197.194 414.044 198.081C414.044 199.024 413.989 200.217 413.878 201.659C413.767 202.879 413.573 204.432 413.295 206.318C413.073 208.149 412.713 210.34 412.214 212.891C411.437 209.896 410.688 207.483 409.967 205.653C409.246 203.767 408.58 202.269 407.97 201.16C407.305 199.884 406.639 198.913 405.973 198.248C405.252 197.748 404.393 197.332 403.394 197C402.507 196.722 401.37 196.5 399.983 196.334C398.652 196.168 397.071 196.195 395.24 196.417C394.963 203.739 394.769 209.674 394.658 214.223C394.547 218.771 394.464 222.321 394.408 224.873C394.353 227.923 394.325 230.114 394.325 231.446C394.38 233.332 394.686 235.19 395.24 237.02C395.684 238.573 396.405 240.182 397.404 241.846C398.402 243.51 399.844 244.98 401.73 246.256H391.579C390.636 246.256 389.471 246.311 388.085 246.422C386.92 246.533 385.422 246.644 383.592 246.755C381.817 246.866 379.737 247.06 377.352 247.338C378.184 245.895 378.849 244.592 379.348 243.427C379.848 242.262 380.236 241.264 380.513 240.432C380.846 239.433 381.096 238.546 381.262 237.769C381.318 236.66 381.456 234.413 381.678 231.03C381.734 229.643 381.789 227.923 381.845 225.871C381.955 223.819 382.066 221.378 382.177 218.549C382.344 215.72 382.482 212.475 382.593 208.814C382.76 205.098 382.926 200.91 383.093 196.251C382.094 195.973 381.151 196.001 380.264 196.334C379.376 196.611 378.6 196.972 377.934 197.416C377.157 197.97 376.409 198.636 375.688 199.413C374.966 200.355 374.162 201.576 373.275 203.073C372.498 204.349 371.611 206.041 370.612 208.149C369.614 210.201 368.477 212.753 367.201 215.804C366.923 212.586 366.729 209.952 366.618 207.899C366.507 205.791 366.424 204.155 366.369 202.99C366.313 201.604 366.286 200.577 366.286 199.912C366.286 199.302 366.23 198.497 366.119 197.499C366.008 196.667 365.87 195.585 365.703 194.254C365.537 192.867 365.315 191.203 365.038 189.262ZM408.137 193.172C412.02 193.283 415.237 193.366 417.788 193.422C420.395 193.422 422.503 193.422 424.112 193.422H428.521H453.316C453.427 194.531 453.51 195.613 453.566 196.667C453.677 197.665 453.732 198.553 453.732 199.329C453.732 200.272 453.704 201.132 453.649 201.909C453.593 202.685 453.51 203.517 453.399 204.405C453.288 205.181 453.177 206.013 453.066 206.901C452.955 207.788 452.761 208.704 452.484 209.646C451.707 206.651 450.654 204.377 449.322 202.824C448.046 201.271 446.743 200.134 445.412 199.413C443.859 198.58 442.222 198.137 440.503 198.081C438.229 198.192 436.454 198.386 435.178 198.664C433.902 198.941 432.904 199.329 432.182 199.829C431.461 200.328 430.907 200.91 430.518 201.576C430.186 202.186 429.825 202.879 429.437 203.656C429.104 204.321 428.799 205.348 428.521 206.734C428.244 207.899 427.967 209.48 427.689 211.477C427.468 213.474 427.218 216.053 426.941 219.215C428.438 218.771 429.631 218.355 430.518 217.967C431.461 217.579 432.21 217.246 432.765 216.968C433.375 216.636 433.819 216.33 434.096 216.053C434.318 215.72 434.651 215.11 435.095 214.223C435.427 213.446 435.871 212.392 436.426 211.061C437.036 209.73 437.757 207.899 438.589 205.57C438.7 208.121 438.755 210.257 438.755 211.976C438.755 213.64 438.783 214.999 438.839 216.053C438.839 217.273 438.866 218.244 438.922 218.965V222.127C438.922 223.292 438.922 224.873 438.922 226.87C438.977 228.811 439.061 231.279 439.171 234.275C438.506 232.222 437.896 230.614 437.341 229.449C436.842 228.229 436.398 227.313 436.01 226.703C435.566 225.982 435.178 225.483 434.845 225.205C434.457 225.095 433.93 224.984 433.264 224.873C432.654 224.817 431.877 224.789 430.934 224.789C430.047 224.789 428.91 224.928 427.523 225.205C427.357 228.256 427.329 230.725 427.44 232.611C427.606 234.441 427.828 235.855 428.105 236.854C428.383 238.019 428.716 238.851 429.104 239.35C429.603 239.849 430.602 240.265 432.099 240.598C433.597 240.875 435.289 240.986 437.175 240.931C439.116 240.82 441.085 240.487 443.082 239.932C445.079 239.378 446.854 238.463 448.407 237.187C449.572 236.133 450.82 234.802 452.151 233.193C453.261 231.806 454.481 230.059 455.812 227.951C457.199 225.843 458.558 223.292 459.889 220.296C459.667 222.793 459.501 224.873 459.39 226.537C459.334 228.145 459.251 229.449 459.14 230.447C459.029 231.612 458.946 232.5 458.891 233.11C458.891 233.775 458.807 234.718 458.641 235.939C458.53 236.993 458.336 238.435 458.059 240.265C457.837 242.04 457.532 244.314 457.143 247.088C454.536 247.143 452.068 247.199 449.738 247.254C447.409 247.254 445.356 247.282 443.581 247.338C441.473 247.393 439.532 247.448 437.757 247.504C435.927 247.504 433.902 247.587 431.683 247.754C429.742 247.864 427.44 248.031 424.777 248.253C422.17 248.475 419.286 248.78 416.124 249.168C416.402 245.396 416.596 241.846 416.707 238.518C416.873 235.134 416.984 232.167 417.039 229.615C417.095 226.62 417.095 223.846 417.039 221.295C417.317 214.916 417.206 209.757 416.707 205.819C416.207 201.881 415.625 199.357 414.959 198.248C414.627 197.859 414.155 197.388 413.545 196.833C413.046 196.389 412.352 195.863 411.465 195.252C410.577 194.642 409.468 193.949 408.137 193.172ZM459.473 189.262C461.248 189.539 462.857 189.789 464.299 190.011C465.741 190.177 466.989 190.316 468.043 190.427C469.263 190.593 470.345 190.732 471.288 190.843C472.453 191.009 474.2 190.815 476.53 190.26C478.859 189.65 481.411 189.095 484.184 188.596C487.013 188.041 489.898 187.736 492.838 187.681C495.777 187.57 498.468 188.097 500.908 189.262C503.349 190.427 505.346 191.591 506.899 192.756C508.452 193.921 509.672 195.169 510.56 196.5C511.503 197.776 512.168 199.135 512.557 200.577C512.945 202.02 513.167 203.6 513.222 205.32C513.167 207.871 512.557 210.34 511.392 212.725C510.893 213.723 510.227 214.777 509.395 215.887C508.618 216.941 507.648 217.967 506.483 218.965C505.318 219.964 503.931 220.907 502.323 221.794C500.77 222.682 498.939 223.458 496.831 224.124C498.884 224.734 500.575 225.455 501.907 226.287C503.293 227.119 504.403 227.896 505.235 228.617C506.233 229.504 506.982 230.364 507.481 231.196C508.091 232.361 508.507 233.359 508.729 234.191C508.951 235.023 509.09 235.828 509.145 236.604C509.256 237.325 509.395 238.074 509.561 238.851C509.728 239.627 510.088 240.515 510.643 241.513C511.087 242.29 511.614 243.094 512.224 243.926C512.779 244.647 513.416 245.424 514.138 246.256C514.914 247.088 515.857 247.892 516.966 248.669C515.413 248.724 513.971 248.752 512.64 248.752C511.364 248.752 510.255 248.752 509.312 248.752C508.202 248.752 507.148 248.724 506.15 248.669C505.152 248.613 503.904 248.586 502.406 248.586C501.13 248.586 499.494 248.586 497.497 248.586C495.555 248.586 493.198 248.613 490.425 248.669C491.645 247.726 492.643 246.783 493.42 245.84C494.197 244.897 494.807 244.037 495.25 243.261C495.75 242.373 496.11 241.513 496.332 240.681C496.609 239.184 496.637 237.63 496.415 236.022C496.249 234.635 495.805 233.11 495.084 231.446C494.363 229.726 493.198 228.007 491.589 226.287C489.981 226.564 488.622 226.786 487.513 226.953C486.459 227.064 485.543 227.175 484.767 227.286C483.879 227.396 483.158 227.48 482.604 227.535C482.104 227.591 481.55 227.646 480.939 227.702C480.44 227.757 479.886 227.84 479.275 227.951C478.721 228.007 478.194 228.09 477.695 228.201C477.584 230.586 477.584 232.666 477.695 234.441C477.805 236.161 477.944 237.603 478.111 238.768C478.332 240.154 478.582 241.347 478.859 242.345C479.137 243.344 479.525 244.314 480.024 245.257C480.413 246.034 480.912 246.866 481.522 247.754C482.132 248.586 482.825 249.279 483.602 249.834C482.16 249.834 480.773 249.834 479.442 249.834C478.166 249.834 477.001 249.806 475.947 249.75C474.727 249.75 473.562 249.723 472.453 249.667C471.343 249.612 470.095 249.584 468.709 249.584C467.544 249.584 466.157 249.584 464.548 249.584C462.995 249.584 461.304 249.612 459.473 249.667C460.915 248.17 462.052 246.894 462.884 245.84C463.716 244.786 464.354 243.898 464.798 243.177C465.297 242.401 465.602 241.735 465.713 241.18C465.824 240.293 465.907 238.712 465.963 236.438C466.074 234.108 466.157 231.446 466.213 228.45C466.268 225.455 466.296 222.321 466.296 219.048C466.296 215.776 466.268 212.725 466.213 209.896C466.157 207.012 466.102 204.543 466.046 202.491C465.991 200.439 465.935 199.135 465.88 198.58C465.713 197.582 465.353 196.584 464.798 195.585C464.354 194.698 463.716 193.699 462.884 192.59C462.052 191.48 460.915 190.371 459.473 189.262ZM490.924 218.549C491.479 218.216 491.95 217.884 492.338 217.551C492.727 217.218 493.059 216.691 493.337 215.97C493.614 215.193 493.836 214.112 494.002 212.725C494.224 211.338 494.474 209.452 494.751 207.067C494.973 204.682 494.807 202.713 494.252 201.16C493.753 199.607 493.059 198.386 492.172 197.499C491.34 196.556 490.397 195.918 489.343 195.585C488.345 195.197 487.457 195.003 486.68 195.003C485.127 195.003 483.602 195.474 482.104 196.417C480.607 197.36 479.47 198.636 478.693 200.245C478.416 200.966 478.166 202.158 477.944 203.822C477.778 205.264 477.667 207.261 477.611 209.813C477.556 212.364 477.639 215.72 477.861 219.88C479.969 220.213 481.827 220.352 483.436 220.296C485.044 220.186 486.403 219.991 487.513 219.714C488.844 219.437 489.981 219.048 490.924 218.549ZM527.117 193.671C529.891 193.838 532.22 193.977 534.106 194.088C536.048 194.143 537.656 194.198 538.932 194.254C540.374 194.309 541.595 194.309 542.593 194.254C543.591 194.198 544.95 194.06 546.67 193.838C548.112 193.671 550.026 193.422 552.411 193.089C554.852 192.701 557.875 192.202 561.48 191.591C560.204 192.867 559.206 194.032 558.485 195.086C557.819 196.084 557.292 196.944 556.904 197.665C556.46 198.553 556.155 199.302 555.989 199.912C555.878 200.466 555.989 201.853 556.322 204.072C556.654 206.291 557.126 208.925 557.736 211.976C558.346 214.971 559.012 218.189 559.733 221.628C560.454 225.011 561.175 228.201 561.896 231.196C562.617 234.136 563.255 236.66 563.81 238.768C564.42 240.82 564.864 242.04 565.141 242.429C565.973 243.593 566.5 244.37 566.722 244.758C566.944 245.091 567.332 245.396 567.887 245.673C568.109 245.784 568.469 245.951 568.968 246.173C569.412 246.395 569.995 246.672 570.716 247.005C571.492 247.338 572.463 247.726 573.628 248.17C571.464 248.28 569.606 248.364 568.053 248.419C566.5 248.419 565.224 248.447 564.226 248.502C563.061 248.558 562.063 248.613 561.23 248.669C560.398 248.669 559.4 248.724 558.235 248.835C557.237 248.946 555.933 249.057 554.325 249.168C552.772 249.279 550.941 249.39 548.833 249.501C549.943 248.724 550.83 248.031 551.496 247.421C552.217 246.755 552.772 246.2 553.16 245.757C553.604 245.202 553.909 244.703 554.075 244.259C554.186 243.76 554.269 243.011 554.325 242.013C554.38 241.125 554.38 239.96 554.325 238.518C554.269 237.02 554.13 235.079 553.909 232.694L532.026 234.94C531.472 235.883 531.055 236.715 530.778 237.436C530.501 238.102 530.307 238.684 530.196 239.184C530.029 239.794 529.974 240.293 530.029 240.681C530.14 241.125 530.334 241.652 530.612 242.262C530.889 242.817 531.277 243.482 531.777 244.259C532.331 244.98 533.136 245.84 534.189 246.838C532.803 246.783 531.388 246.755 529.946 246.755C528.504 246.755 527.173 246.783 525.952 246.838C524.51 246.894 523.096 246.949 521.709 247.005C520.322 247.06 518.741 247.143 516.966 247.254C515.469 247.365 513.722 247.504 511.725 247.67C509.672 247.781 507.481 247.948 505.152 248.17C506.594 247.504 507.814 246.838 508.813 246.173C509.811 245.452 510.643 244.786 511.309 244.176C512.085 243.51 512.751 242.872 513.305 242.262C513.694 241.707 514.47 240.432 515.635 238.435C516.8 236.382 518.104 233.97 519.546 231.196C521.043 228.423 522.597 225.455 524.205 222.293C525.869 219.132 527.367 216.164 528.698 213.391C530.029 210.562 531.111 208.121 531.943 206.069C532.775 204.016 533.191 202.685 533.191 202.075C533.08 201.354 532.803 200.55 532.359 199.662C531.971 198.886 531.361 197.998 530.529 197C529.752 196.001 528.615 194.892 527.117 193.671ZM552.91 226.537C552.577 224.595 552.272 222.931 551.995 221.545C551.718 220.102 551.496 218.91 551.329 217.967C551.107 216.857 550.941 215.887 550.83 215.055C550.664 214.278 550.47 213.28 550.248 212.059C550.026 211.005 549.748 209.702 549.416 208.149C549.138 206.54 548.778 204.627 548.334 202.408C545.172 208.731 542.704 213.64 540.929 217.135C539.209 220.574 537.961 223.098 537.185 224.706C536.242 226.592 535.715 227.702 535.604 228.034L552.91 226.537ZM623.217 189.095C622.44 190.87 621.747 192.423 621.137 193.755C620.527 195.086 620 196.223 619.556 197.166C619.057 198.22 618.641 199.163 618.308 199.995C618.03 200.605 617.67 201.437 617.226 202.491C616.782 203.434 616.228 204.682 615.562 206.235C614.952 207.733 614.148 209.674 613.149 212.059C612.65 210.007 612.04 208.204 611.319 206.651C610.598 205.098 609.821 203.739 608.989 202.574C608.157 201.409 607.27 200.466 606.327 199.745C605.439 198.969 604.552 198.331 603.664 197.832C601.612 196.722 599.448 196.112 597.174 196.001C594.179 196.168 591.821 196.667 590.102 197.499C588.438 198.275 587.218 199.191 586.441 200.245C585.664 201.243 585.248 202.297 585.193 203.406C585.137 204.46 585.276 205.348 585.609 206.069C585.886 206.734 586.857 207.511 588.521 208.398C590.241 209.286 592.293 210.312 594.678 211.477C597.119 212.586 599.726 213.862 602.499 215.304C605.273 216.691 607.824 218.244 610.154 219.964C612.539 221.628 614.536 223.458 616.145 225.455C617.809 227.396 618.724 229.477 618.89 231.695C619.057 234.524 619.029 237.076 618.807 239.35C618.585 241.624 617.809 243.566 616.477 245.174C615.146 246.783 613.066 248.059 610.237 249.002C607.464 249.945 603.609 250.527 598.672 250.749C593.569 250.971 589.381 250.693 586.108 249.917C582.836 249.14 580.173 248.086 578.121 246.755C576.124 245.424 574.626 243.954 573.628 242.345C572.685 240.737 571.991 239.211 571.548 237.769C571.104 236.271 570.799 234.996 570.632 233.942C570.466 232.832 570.189 232.167 569.8 231.945C569.357 231.668 568.913 231.418 568.469 231.196C568.081 230.974 567.665 230.78 567.221 230.614C566.777 230.392 566.334 230.198 565.89 230.031L590.102 226.121C588.715 227.23 587.634 228.256 586.857 229.199C586.136 230.142 585.581 230.974 585.193 231.695C584.749 232.527 584.444 233.304 584.278 234.025C584.167 234.802 584.416 235.772 585.027 236.937C585.637 238.102 586.469 239.239 587.523 240.348C588.632 241.402 589.908 242.29 591.35 243.011C592.792 243.732 594.29 244.037 595.843 243.926C597.784 243.76 599.365 243.288 600.586 242.512C601.806 241.68 602.721 240.654 603.331 239.433C603.997 238.213 604.385 236.882 604.496 235.439C604.607 233.997 604.468 232.583 604.08 231.196C603.747 229.754 603.193 228.423 602.416 227.202C601.639 225.927 600.724 224.873 599.67 224.041C598.727 223.375 597.257 222.737 595.261 222.127C593.319 221.517 591.128 220.851 588.687 220.13C586.302 219.409 583.834 218.577 581.282 217.634C578.786 216.691 576.512 215.526 574.46 214.139C572.463 212.753 570.854 211.116 569.634 209.23C568.469 207.345 568.025 205.07 568.303 202.408C568.525 200.134 569.246 198.248 570.466 196.75C571.742 195.197 573.323 193.977 575.209 193.089C577.15 192.146 579.286 191.453 581.615 191.009C584 190.565 586.413 190.316 588.854 190.26C591.35 190.149 593.791 190.177 596.176 190.343C598.616 190.51 600.807 190.704 602.749 190.926C604.69 191.148 606.327 191.37 607.658 191.591C609.045 191.758 609.904 191.869 610.237 191.924C611.679 192.035 613.121 192.007 614.564 191.841C615.839 191.73 617.226 191.48 618.724 191.092C620.277 190.648 621.775 189.983 623.217 189.095Z" fill="white"/>
</svg>
