<svg width="2498" height="303" viewBox="0 0 2498 303" fill="none" xmlns="http://www.w3.org/2000/svg">
<path fill-rule="evenodd" clip-rule="evenodd" d="M1720.61 303L1898.72 0H2495.47V49.9588H2047.84L2003.62 126.396H2239.93L2211.45 176.355H1973.9L1928.43 252.791H2165.99L2136.27 303H1720.61ZM1292.21 224.065H1471.31C1465.32 232.808 1462.57 241.551 1466.32 247.046C1472.81 256.788 1495.79 252.039 1501.79 250.044C1513.78 246.297 1520.28 238.803 1526.02 228.811L1555.99 176.355H1373.4C1335.17 176.355 1333.93 153.623 1349.42 126.396L1405.62 30.9744C1422.36 3.49712 1444.84 0 1473.56 0H1791.05C1823.28 0 1823.28 26.2284 1810.29 49.9588L1792.3 82.1822H1612.2C1617.7 71.6909 1617.94 62.4485 1613.7 56.7032C1606.71 47.211 1588.22 49.2094 1578.48 54.2053C1570.74 58.4518 1564.24 65.6958 1557.24 77.4361L1528.52 126.396H1705.13C1742.35 126.396 1748.09 153.627 1736.35 176.355L1682.64 266.031C1668.16 289.761 1643.18 303 1614.45 303H1299.21C1268.24 303 1257.5 282.517 1270.73 260.035L1292.21 224.065ZM915.024 49.9588C943.75 0 991.461 0 1028.43 0H1298.21C1326.68 0 1350.66 23.7304 1335.17 49.9588L1216.03 252.791C1190.8 293.258 1170.56 303 1138.34 303H824.349C793.374 303 779.136 280.269 795.872 252.791L915.024 49.9588ZM1071.64 77.4361L980.72 228.811C977.722 234.307 976.473 239.299 978.222 243.299C983.967 255.789 1019.19 253.541 1031.43 251.043C1048.91 247.046 1053.41 234.556 1057.16 228.811L1146.83 77.4361C1153.08 66.695 1152.33 59.7007 1146.83 55.4542C1138.84 49.2094 1114.36 48.7098 1100.87 52.4567C1089.38 55.704 1079.89 62.9481 1071.64 77.4361ZM479.383 0H825.598C853.075 0 874.557 24.9794 856.572 54.9547L820.851 115.655C805.364 143.132 779.136 156.121 759.902 156.121C779.136 166.862 779.136 185.843 769.394 202.583L733.673 264.778C724.181 281.514 709.693 303 665.729 303H0.52832V252.791H330.256L479.383 0ZM583.297 126.396H671.475C691.958 126.396 700.201 115.655 704.947 106.162L722.932 77.4361C730.176 64.4468 730.176 49.9588 714.689 49.9588H628.51L583.297 126.396ZM508.11 252.791H596.287C616.77 252.791 625.013 242.047 629.756 232.558L647.744 203.832C654.988 190.593 654.988 176.355 639.251 176.355H553.322L508.11 252.791ZM2472.24 110.659C2458.5 110.659 2446.76 99.9176 2446.76 85.4295C2446.76 70.9415 2458.5 60.4501 2472.24 60.4501C2485.98 60.4501 2497.47 70.9415 2497.47 85.4295C2497.47 99.9176 2485.98 110.659 2472.24 110.659ZM2451.75 85.4295C2451.75 97.4196 2460.75 106.412 2472.24 106.412C2483.48 106.412 2492.47 97.4196 2492.47 85.4295C2492.47 73.4394 2483.48 64.4468 2472.24 64.4468C2460.75 64.4468 2451.75 73.4394 2451.75 85.4295ZM2466.99 87.4279V99.9176H2462.5V70.9415H2473.49C2480.49 70.9415 2483.73 73.4394 2483.73 79.1847C2483.73 84.4303 2480.48 86.6785 2476.24 87.1781L2484.48 99.9176H2479.48L2471.99 87.4279H2466.99ZM2466.99 83.681H2472.24C2475.99 83.681 2479.24 83.4312 2479.24 78.9349C2479.24 75.4378 2475.99 74.6884 2472.99 74.6884H2466.99V83.681Z" fill="white"/>
</svg>
