<svg width="2500" height="1679" viewBox="0 0 2500 1679" fill="none" xmlns="http://www.w3.org/2000/svg">
<g clip-path="url(#clip0_512_19)">
<path d="M937.964 939.527L936.939 685.982L1179.69 595.927L935.222 515.862L930.1 266.055L781.804 467.609L539.219 392.821L680.035 604.4L542.584 816.366L782.009 737.016L937.964 939.527Z" fill="white"/>
<path d="M968.283 1206.04H1403.09L1948.03 603.39L1400.46 0H969.846L1481.97 602.502L968.283 1206.04Z" fill="white"/>
<path d="M0.0371094 1530.43C0.0371094 1452.11 66.2476 1375.09 156.737 1375.09C218.376 1375.09 287.546 1444.59 287.546 1444.59L212.606 1488.19C212.606 1488.19 200.226 1455.49 154.015 1455.49C107.036 1455.49 79.3947 1494.06 79.0698 1529.07C78.7073 1568.2 110.791 1602.65 151.288 1602.65C183.064 1602.65 216.693 1568.58 216.693 1568.58L280.736 1614.91C280.736 1614.91 232.813 1673.5 152.653 1673.5C72.3275 1673.5 0.0371094 1625.07 0.0371094 1530.43Z" fill="white"/>
<path fill-rule="evenodd" clip-rule="evenodd" d="M467.291 1379.06C383.006 1379.06 314.8 1446.38 314.8 1529.16C314.8 1611.94 383.006 1679 467.291 1679C551.576 1679 620.046 1611.94 620.046 1529.16C620.046 1446.38 551.576 1379.06 467.291 1379.06ZM467.291 1454.11C509.435 1454.11 543.669 1487.77 543.669 1529.16C543.669 1570.55 509.435 1603.95 467.291 1603.95C425.15 1603.95 391.178 1570.55 391.178 1529.16C391.178 1487.77 425.15 1454.11 467.291 1454.11ZM677.33 1383.3V1663.89H750.79V1512.24L871.986 1663.89H944.384V1383.3H870.661V1547.28L750.79 1383.3H677.33ZM1004.32 1383.3L1103.5 1663.89H1212.77L1311.95 1383.3H1231.6L1158.14 1606.07L1084.67 1383.3H1004.32ZM1364.73 1383.3V1663.89H1590.41V1599.17H1438.19V1552.24H1575.03V1494.95H1438.19V1450.13H1590.41V1383.3L1364.73 1383.3ZM2274.28 1383.3V1663.89H2499.96V1599.17H2347.74V1552.24H2484.58V1494.95H2347.74V1450.13H2499.96V1383.3L2274.28 1383.3ZM1673.42 1388.61V1665.21H1738.66V1556.21H1776.05L1833.34 1665.21H1917.4L1860.65 1546.93C1934.44 1502.69 1919.83 1410.09 1837.58 1388.61H1673.42ZM1737.33 1455.44H1812.65C1838.82 1455.44 1837.12 1496.01 1812.65 1496.01H1737.33V1455.44Z" fill="white"/>
<path d="M1956.6 1626.47C1959.5 1643.81 2027.87 1676.57 2095.35 1676.57C2157.32 1676.57 2207.12 1646.82 2207.12 1587.77C2207.12 1515.14 2122.33 1498.32 2122.33 1498.32C2122.33 1498.32 2051.88 1497.33 2050.07 1464.6C2049.21 1449.2 2070.67 1440.51 2089.57 1440.51C2120.52 1440.51 2155.09 1471.35 2155.09 1471.35L2204.23 1418.35C2204.23 1418.35 2142.05 1369.21 2089.57 1369.21C2039.45 1369.21 1968.17 1402.04 1968.17 1470.38C1968.17 1528.53 2050.68 1555.28 2050.68 1555.28C2050.68 1555.28 2137.75 1564.55 2137.75 1591.78C2137.75 1610.32 2106.17 1615.87 2087.64 1615.87C2042.66 1615.87 2004.78 1576.37 2004.78 1576.37L1956.6 1626.47Z" fill="white"/>
</g>
<defs>
<clipPath id="clip0_512_19">
<rect width="2500" height="1679" fill="white"/>
</clipPath>
</defs>
</svg>
