<svg width="2500" height="2500" viewBox="0 0 2500 2500" fill="none" xmlns="http://www.w3.org/2000/svg">
<g clip-path="url(#clip0_511_5)">
<path fill-rule="evenodd" clip-rule="evenodd" d="M1691.57 574.742C1770.05 535.495 1810.32 541.526 1811.33 580.773C1812.32 632.094 1804.26 700.523 1799.22 749.834C1769.05 1017.53 1720.74 1235.9 1716.72 1511.64C1846.54 1175.51 1954.22 944.056 2094.11 657.256C2138.39 565.676 2167.57 582.783 2203.8 565.676C2345.7 502.267 2350.72 541.513 2331.6 620.006C2263.18 904.809 2088.07 1805.48 2060.91 1943.38C2052.85 1983.63 2008.58 1967.53 1998.51 1951.43C1946.18 1881.99 1889.81 1880.97 1895.84 1833.68C1928.06 1604.24 2042.79 1023.57 2071.97 886.704C1920 1196.64 1763.01 1586.11 1682.53 1805.48C1665.41 1851.78 1634.22 1848.77 1615.1 1814.55C1586.9 1765.22 1534.57 1741.09 1526.54 1684.73C1498.34 1504.58 1557.72 1160.42 1565.77 942.046C1484.26 1179.54 1345.39 1642.46 1285.01 1850.76C1259.86 1937.32 1176.33 1922.22 1198.47 1839.7C1291.04 1488.47 1489.3 869.571 1574.83 647.165C1594.96 593.859 1648.28 596.881 1691.57 574.742ZM1190.4 531.475C1163.22 525.444 1084.73 567.699 1036.43 574.755C1021.34 578.788 1007.24 593.872 1002.23 605.934C925.717 782.038 857.301 949.114 798.937 1100.04C710.796 1116.21 622.895 1133.65 535.262 1152.38C606.712 971.241 678.176 791.117 747.603 619.008C781.817 532.474 691.262 524.419 656.011 610.966C610.733 722.675 525.184 932.98 430.596 1177.55C361.156 1194.66 285.672 1213.78 209.202 1236.93C152.848 1252.01 150.825 1267.09 174.975 1301.33C189.06 1319.44 215.233 1317.43 228.32 1331.53C261.535 1365.73 281.664 1407 341.014 1413.03C286.683 1553.92 234.338 1697.83 188.061 1835.7C157.868 1923.25 243.403 1941.37 275.607 1848.79C327.94 1700.85 383.282 1550.91 440.661 1398.93C487.961 1388.88 601.68 1364.73 707.345 1340.57C623.819 1572.03 569.476 1746.13 547.324 1831.67C543.316 1847.76 551.357 1855.82 554.366 1863.86C581.551 1904.12 609.721 1906.13 645.946 1957.46C655.012 1971.56 688.214 1978.59 700.302 1944.38C772.439 1725.38 849.272 1507.96 930.749 1292.27C961.954 1284.21 1018.32 1271.13 1052.52 1220.82C1112.91 1130.24 1130.03 1148.37 1146.12 1121.18C1164.23 1085.97 1151.14 1054.77 1086.75 1061.81C1086.75 1061.81 1062.59 1063.83 1016.3 1068.86C1088.75 884.693 1153.18 728.719 1197.45 608.956C1212.53 567.699 1214.57 537.506 1190.4 531.475Z" fill="#C7232F"/>
<path fill-rule="evenodd" clip-rule="evenodd" d="M1119.61 1675.08C1130.08 1661.8 1139.58 1648.09 1148.14 1635.44C1186.27 1579.02 1149.15 1545.85 1109.9 1579.07C1104.3 1584.22 1098.47 1589.83 1092.69 1595.67C1086.25 1575.54 1079.87 1555.39 1073.53 1535.23C1091.52 1513.18 1109.03 1490.55 1123.97 1467.36C1187.04 1369.54 1063.61 1313.4 1010.25 1376.81C982.097 1410.02 989.139 1443.22 997.18 1472.41C999.515 1481.17 1003.15 1493.7 1007.65 1508.9C988.077 1529.34 969.149 1550.39 950.891 1572.01C889.505 1642.48 906.574 1733.2 971.02 1753.16C1009.88 1765.21 1046.54 1747.65 1078.31 1719.64C1079.84 1723.63 1081.3 1727.43 1082.73 1731.04C1099.84 1773.3 1153.18 1760.22 1132.04 1708.9C1128.64 1700.27 1124.39 1688.66 1119.61 1675.08ZM1032.25 1586.41C1037.46 1602.84 1043.08 1620.11 1048.68 1636.63C1041.67 1642.48 1034.55 1648.39 1027.37 1652.54C1002.42 1666.98 984.094 1651.53 1016.3 1608.26C1021.56 1600.79 1026.96 1593.56 1032.25 1586.41ZM1052.39 1463.18C1050.54 1458.5 1049.47 1453.91 1048.5 1450.27C1030.45 1382.82 1107.75 1400.84 1068.64 1445.23C1063.09 1451.52 1058.05 1457.75 1052.39 1463.18Z" fill="#C7232F"/>
</g>
<defs>
<clipPath id="clip0_511_5">
<rect width="2500" height="2500" fill="white"/>
</clipPath>
</defs>
</svg>
