<svg width="1169" height="1139" viewBox="0 0 1169 1139" fill="none" xmlns="http://www.w3.org/2000/svg">
<path d="M544 92.582C539 86.957 534.625 81.3321 530.25 76.3321C529 75.0821 525.875 73.207 524 73.832C516.5 75.707 509.625 73.8321 503.375 71.3321C495.25 68.2071 487.125 68.8321 479.625 72.5821C475.875 74.4571 475.875 76.9571 477.125 80.7071C480.25 88.2071 480.25 87.582 475.25 93.832C474 95.707 473.375 98.2071 473.375 100.707C473.375 103.207 474.625 105.082 475.25 107.582C478.375 118.207 474.625 120.082 465.875 122.582C454.625 125.707 449 132.582 449 143.832V165.082C449 168.832 450.25 170.707 453.375 172.582C459.625 175.707 462.125 179.457 459.625 185.707C456.5 193.207 452.75 200.082 449 206.957C446.5 211.332 444 215.707 444.625 221.332C444.625 222.582 444.625 224.457 443.375 225.707C440.875 229.457 441.5 231.957 444.625 235.082C450.25 240.082 450.875 245.707 448.375 252.582C445.875 260.082 445.875 266.332 450.25 273.832C453.375 279.457 454.625 286.332 455.875 293.207C457.75 301.957 462.75 309.457 467.75 316.957C470.875 321.332 473.375 326.332 474.625 331.332C475.25 334.457 473.375 338.832 472.125 341.957C469.625 346.332 466.5 350.707 464 355.082C461.5 358.832 460.25 363.207 457.75 366.957C455.875 370.082 454.625 373.207 457.125 376.332C464 383.832 462.75 391.332 459.625 399.457C457.125 406.332 457.75 411.957 464 417.582C470.875 423.832 471.5 430.082 467.75 440.082C463.375 452.582 460.25 465.707 456.5 478.207L449 504.457C445.875 516.332 447.75 527.582 450.875 538.832C452.125 544.457 454.625 549.457 455.25 555.082C455.875 558.207 455.25 561.332 454.625 564.457C454 568.207 452.125 571.332 450.875 575.082C450.25 576.332 450.25 578.207 450.875 578.832C454 584.457 452.125 589.457 449.625 594.457C446.5 600.707 446.5 605.707 449 611.957C450.25 616.332 450.25 621.332 450.25 625.707C450.25 631.957 449 638.207 448.375 645.082C446.5 661.332 449 677.582 452.125 693.832C452.75 698.207 455.25 701.957 456.5 706.332C459 711.957 456.5 716.957 454 721.332C452.125 724.457 452.75 725.707 454.625 726.957C457.125 728.832 458.375 731.332 455.25 733.207C452.75 735.082 449.625 735.707 448.375 731.957C448.375 731.332 447.75 730.707 447.125 730.707C440.25 726.957 439 721.332 441.5 714.457C444 707.582 441.5 701.957 437.125 696.957C430.25 689.457 429 680.082 427.75 670.707C425.25 655.707 424 640.707 421.5 625.707C419 613.207 415.875 601.332 412.75 589.457C412.125 585.707 409.625 582.582 407.75 579.457C404.625 573.832 403.375 568.832 407.75 563.207C410.25 560.082 410.875 556.332 408.375 552.582C406.5 550.082 404.625 546.957 404 544.457C402.75 540.707 402.125 536.957 402.75 533.207C402.75 530.082 404.625 526.957 404.625 523.832C405.25 519.457 404 515.707 399.625 513.207C394.625 510.082 389 505.707 389.625 498.207C390.25 495.082 392.125 491.957 393.375 488.832C398.375 478.832 404 469.457 408.375 458.832C412.125 450.082 409 440.082 408.375 431.332C407.75 425.082 407.75 419.457 407.75 413.207C407.75 409.457 406.5 406.332 404 403.832C402.125 402.582 400.25 400.707 399.625 398.832C398.375 396.332 397.75 393.207 399 391.332C404 382.582 404.625 373.207 401.5 363.832C400.875 362.582 400.875 360.707 401.5 359.457C403.375 351.332 400.875 343.832 399.625 336.332C397.125 323.832 394 311.957 390.875 300.082C388.375 290.707 383.375 283.207 377.75 275.082C372.125 267.582 369.625 258.207 371.5 248.832C374 235.082 377.125 221.332 380.25 208.207C381.5 201.957 384 195.707 386.5 189.457C387.75 185.707 387.125 182.582 385.25 178.832C384.625 176.957 384 174.457 384.625 173.207C389 162.582 385.25 152.582 383.375 142.582C382.75 140.082 379 137.582 377.125 135.082C376.5 134.457 375.25 133.832 374 133.207C366.5 128.207 364.625 124.457 368.375 116.332C373.375 103.207 361.5 92.582 351.5 90.707C335.875 86.957 319.625 83.832 304 81.332C298.375 80.707 292.75 82.582 287.125 83.207C285.25 83.207 282.75 84.457 280.875 84.457C278.375 84.457 276.5 83.2071 274 81.9571C274.625 80.0821 275.25 77.5821 276.5 75.7071C280.25 70.7071 285.875 66.957 292.125 65.707C304.625 63.832 315.875 58.8321 327.75 53.8321C338.375 49.4571 349.625 48.2071 360.875 50.7071C367.125 51.9571 372.125 49.457 376.5 46.957C386.5 40.707 395.875 34.4571 405.25 27.5821C409.625 24.4571 411.5 24.4571 414 28.8321C414.625 29.4571 415.25 30.707 415.25 31.332C417.75 38.832 424 41.957 431.5 42.582C439 43.207 447.125 44.4571 454.625 44.4571C459 44.4571 462.125 46.332 465.25 48.832C469.625 51.957 472.75 51.957 477.125 48.832C480.25 46.332 483.375 45.0821 487.125 43.2071C490.875 41.3321 495.25 39.457 498.375 36.332C503.375 31.332 508.375 28.8321 515.25 30.7071C521.5 32.5821 527.125 31.3321 532.125 27.5821C540.875 21.3321 550.25 18.2071 561.5 16.9571C572.75 15.7071 582.75 11.332 591.5 3.20702C596.5 -1.16798 599 -1.16795 603.375 3.83205C605.25 5.70705 607.125 8.20702 609 9.45702C612.75 11.957 616.5 15.082 620.875 15.707C625.875 16.957 629.625 18.8321 632.75 23.2071C636.5 28.2071 640.875 30.082 646.5 31.332C654.625 33.207 657.75 40.0821 655.25 47.5821C654.625 48.8321 655.875 51.3321 657.125 51.3321C660.25 51.9571 663.375 52.5821 666.5 52.5821C670.875 52.5821 674.625 53.832 675.875 58.207C677.125 62.582 673.375 65.082 670.25 67.582C669 68.832 666.5 69.4571 664.625 69.4571C657.125 71.3321 651.5 74.4571 650.25 82.5821C649 90.0821 643.375 95.0821 639.625 100.707C635.875 106.332 632.125 112.582 628.375 118.207C625.875 121.957 627.125 125.707 628.375 129.457C629.625 132.582 629.625 135.707 630.875 138.832C632.125 141.957 630.875 144.457 629.625 147.582C625.875 155.082 626.5 158.207 632.125 164.457C634.625 166.957 636.5 170.082 637.75 173.207C638.375 175.082 638.375 178.207 637.125 180.707C630.875 192.582 633.375 203.832 637.75 215.707C640.875 224.457 644.625 233.207 640.25 242.582C639 245.707 637.125 249.457 634.625 251.957C629.625 257.582 627.75 263.207 629.625 270.707C630.25 273.832 630.25 278.207 629.625 281.332C628.375 286.957 625.25 291.957 624.625 297.582C624 301.957 625.25 306.332 626.5 310.707C630.25 324.457 635.25 338.207 638.375 351.957C640.25 358.207 640.25 365.707 639.625 371.957C639.625 375.707 637.125 379.457 634.625 381.957C625.875 390.082 620.25 398.832 618.375 411.332C616.5 421.957 612.75 432.582 606.5 442.582C600.25 452.582 599 463.832 602.125 475.082C604 480.707 605.25 485.707 600.875 491.332C600.25 491.957 600.25 494.457 600.875 495.082C604.625 501.332 604.625 507.582 602.75 513.832C600.25 522.582 600.25 531.332 603.375 540.082C604.625 544.457 604 547.582 601.5 550.707C597.75 556.332 597.125 561.957 597.75 568.832C599 575.707 597.75 583.207 597.75 590.082C597.125 600.082 592.75 610.707 596.5 620.707C599 628.207 603.375 635.082 607.75 641.332C614 650.082 614 651.957 607.125 660.707C605.25 663.207 603.375 666.332 605.25 670.082C607.125 675.082 605.25 679.457 604.625 683.832C602.125 693.832 601.5 704.457 598.375 715.082C596.5 722.582 595.875 730.082 596.5 737.582C597.125 746.332 594.625 755.707 589.625 763.207C586.5 768.832 582.75 773.207 579 778.832C577.75 781.332 577.125 784.457 575.875 786.957C575.25 788.832 573.375 790.707 572.75 791.957C570.875 790.707 567.75 789.457 567.125 787.582C564 781.332 564.625 774.457 566.5 767.582C569.625 756.332 574 745.707 573.375 733.832C572.125 714.457 567.75 696.332 555.25 680.707C552.125 676.332 550.25 671.332 554 666.957C560.875 658.207 561.5 648.832 557.75 638.832C556.5 636.332 557.125 632.582 556.5 629.457C555.875 625.707 555.25 622.582 554.625 619.457C554.625 617.582 553.375 614.457 554.625 613.207C557.125 608.207 557.75 603.832 555.875 597.582C554.625 593.832 555.875 588.832 556.5 584.457C557.75 579.457 557.75 574.457 554.625 570.082C550.25 563.207 549.625 555.707 549.625 548.207C549.625 538.832 550.875 530.082 551.5 520.707C552.125 512.582 549 504.457 543.375 498.832C537.125 492.582 537.75 485.707 540.25 478.207C545.875 462.582 552.125 447.582 557.125 431.957C559.625 423.832 560.25 414.457 561.5 405.707C562.125 401.957 564 398.207 564.625 394.457C564.625 393.832 565.25 393.207 565.875 392.582C570.875 386.957 571.5 380.082 569.625 372.582C567.125 363.207 564.625 353.832 562.125 345.082C561.5 343.207 560.875 340.707 559.625 338.832C555.25 331.957 555.25 324.457 556.5 316.957C557.75 311.332 557.125 305.707 557.75 300.082C559 292.582 559.625 285.707 562.125 278.832C564 271.332 564 268.832 559 263.207C556.5 260.707 554 258.832 552.125 256.332C549 251.332 548.375 245.707 550.875 240.082C554.625 229.457 554 219.457 550.875 208.832C547.75 196.957 547.125 185.707 552.125 174.457C555.25 167.582 557.125 161.957 544 153.832C539 150.707 537.125 145.707 535.25 140.082C534.625 137.582 535.25 135.082 538.375 133.207C540.25 131.957 541.5 129.457 541.5 126.957C542.125 122.582 541.5 117.582 541.5 113.207C541.5 111.957 541.5 110.707 542.125 109.457C545.25 105.082 543.375 102.582 539.625 100.707C539 100.082 539 97.582 539 95.707C541.5 95.082 542.75 93.832 544 92.582Z" fill="url(#paint0_linear_508_22)"/>
<path d="M779.625 258.832C780.875 260.082 782.125 261.332 783.375 261.957C790.875 266.332 794 271.957 791.5 280.082C789.625 287.582 786.5 294.457 784.625 301.957C780.875 315.082 784 326.957 792.125 337.582C797.125 344.457 801.5 351.957 804.625 360.082C805.875 362.582 804 366.332 804 369.457C804 373.832 803.375 378.832 803.375 383.207C804 390.082 801.5 396.332 797.75 401.957C791.5 411.332 788.375 421.957 785.25 432.582C784 436.957 785.875 442.582 787.125 446.957C788.375 450.707 790.875 454.457 792.75 458.207C796.5 465.082 795.875 472.582 792.75 479.457C790.25 484.457 787.125 489.457 784.625 494.457C780.875 501.332 782.125 507.582 784.625 514.457C786.5 520.082 789 525.707 789.625 531.332C790.25 535.082 789 539.457 787.125 541.957C783.375 546.957 782.75 551.957 784.625 557.582C785.875 561.957 785.25 565.707 784 570.082C782.75 572.582 783.375 575.707 783.375 578.207C784 581.332 785.25 585.082 786.5 588.207C788.375 592.582 787.75 595.707 785.25 599.457C777.75 613.207 770.25 626.957 764 640.707C761.5 646.332 760.25 652.582 759 658.207C757.125 666.332 759.625 675.082 755.25 683.207C754 685.082 751.5 686.957 749 688.207C748.375 688.832 745.25 686.957 745.25 685.707C743.375 676.957 742.125 667.582 740.25 658.832C737.75 648.832 739 639.457 741.5 629.457C745.25 614.457 744 600.082 735.25 586.957C730.875 580.707 730.875 575.707 737.125 570.082C745.25 563.207 744.625 553.832 746.5 545.082C747.75 536.957 746.5 530.082 742.125 522.582C740.875 520.707 741.5 516.332 742.75 515.082C751.5 504.457 752.75 491.957 753.375 478.832C753.375 471.332 752.75 463.832 753.375 456.332C754 442.582 755.875 429.457 756.5 415.707C757.125 408.832 755.875 401.332 754.625 394.457C753.375 388.832 750.875 383.207 748.375 377.582C742.125 363.832 742.125 349.457 747.75 335.707C752.125 324.457 748.375 315.082 742.75 306.332C737.125 296.332 732.125 286.332 729 275.082C728.375 273.207 728.375 270.082 729.625 268.207C732.75 262.582 732.75 257.582 731.5 251.957C730.875 248.832 732.125 245.082 734 241.957C735.875 238.207 735.875 236.332 733.375 233.207C730.25 230.082 727.75 227.582 725.25 224.457C722.75 221.332 722.75 218.207 725.875 215.082C729 211.957 732.125 209.457 735.25 206.332C737.125 204.457 738.375 202.582 739.625 200.082C742.75 193.832 742.75 192.582 738.375 187.582C736.5 185.082 735.25 182.582 736.5 179.457C737.75 177.582 738.375 175.082 739.625 172.582C740.875 169.457 741.5 166.332 740.25 162.582C739 158.207 739 153.207 739.625 148.832C739.625 138.832 740.875 129.457 740.875 119.457C740.875 113.207 735.875 110.082 730.875 108.207C726.5 105.707 721.5 104.457 716.5 102.582C714 101.957 710.875 101.957 708.375 103.207C699 107.582 690.875 104.457 683.375 98.8321C679 95.7071 674.625 93.8322 668.375 95.0822C664 95.7072 658.375 95.0821 654 93.8321C649.625 92.5821 649 90.7072 652.125 86.9572C654.625 83.8322 658.375 80.7071 661.5 78.2071L665.875 73.8321C669 69.4571 672.75 66.3322 678.375 66.9572C686.5 67.5822 693.375 65.7071 700.25 61.3321C704.625 58.2071 710.25 56.9571 715.25 56.3321C720.25 55.7071 722.75 53.2071 724 48.8321C726.5 39.4571 731.5 33.8321 741.5 31.9571C745.875 31.3321 749.625 27.5822 752.75 24.4572C758.375 18.2072 764 18.8322 767.125 26.3322C768.375 30.0822 772.75 32.5821 777.125 31.3321C786.5 28.2071 792.125 33.8321 796.5 40.7071C799.625 45.0821 802.75 48.2072 808.375 49.4572C812.125 50.7072 813.375 53.8322 812.125 57.5822V58.2071C809 67.5821 809 67.5821 817.125 72.5821C824 77.5821 825.875 82.5822 822.125 90.0822C819 96.9572 820.25 101.957 825.25 107.582C829 111.957 829.625 113.832 825.25 117.582C817.75 123.832 816.5 132.582 815.875 141.332C815.25 146.332 813.375 150.082 809.625 153.207C807.125 155.082 805.25 159.457 804 162.582C801.5 169.457 799 176.957 797.125 183.832C796.5 185.082 796.5 185.707 796.5 186.957C796.5 193.207 794.625 198.207 790.25 201.957C784.625 206.957 781.5 213.207 785.25 220.707C788.375 226.332 786.5 231.957 785.875 237.582C785.875 238.832 784.625 240.707 785.25 241.957C785.875 249.457 782.125 253.832 779.625 258.832Z" fill="url(#paint1_linear_508_22)"/>
<path d="M544 92.582C539 86.957 534.625 81.3321 530.25 76.3321C529 75.0821 525.875 73.207 524 73.832C516.5 75.707 509.625 73.8321 503.375 71.3321C495.25 68.2071 487.125 68.8321 479.625 72.5821C475.875 74.4571 475.875 76.9571 477.125 80.7071C480.25 88.2071 480.25 87.582 475.25 93.832C474 95.707 473.375 98.2071 473.375 100.707C473.375 103.207 474.625 105.082 475.25 107.582C478.375 118.207 474.625 120.082 465.875 122.582C454.625 125.707 449 132.582 449 143.832V165.082C449 168.832 450.25 170.707 453.375 172.582C459.625 175.707 462.125 179.457 459.625 185.707C456.5 193.207 452.75 200.082 449 206.957C446.5 211.332 444 215.707 444.625 221.332C444.625 222.582 444.625 224.457 443.375 225.707C440.875 229.457 441.5 231.957 444.625 235.082C450.25 240.082 450.875 245.707 448.375 252.582C445.875 260.082 445.875 266.332 450.25 273.832C453.375 279.457 454.625 286.332 455.875 293.207C457.75 301.957 462.75 309.457 467.75 316.957C470.875 321.332 473.375 326.332 474.625 331.332C475.25 334.457 473.375 338.832 472.125 341.957C469.625 346.332 466.5 350.707 464 355.082C461.5 358.832 460.25 363.207 457.75 366.957C455.875 370.082 454.625 373.207 457.125 376.332C464 383.832 462.75 391.332 459.625 399.457C457.125 406.332 457.75 411.957 464 417.582C470.875 423.832 471.5 430.082 467.75 440.082C463.375 452.582 460.25 465.707 456.5 478.207L449 504.457C445.875 516.332 447.75 527.582 450.875 538.832C452.125 544.457 454.625 549.457 455.25 555.082C455.875 558.207 455.25 561.332 454.625 564.457C454 568.207 452.125 571.332 450.875 575.082C450.25 576.332 450.25 578.207 450.875 578.832C454 584.457 452.125 589.457 449.625 594.457C446.5 600.707 446.5 605.707 449 611.957C450.25 616.332 450.25 621.332 450.25 625.707C450.25 631.957 449 638.207 448.375 645.082C446.5 661.332 449 677.582 452.125 693.832C452.75 698.207 455.25 701.957 456.5 706.332C459 711.957 456.5 716.957 454 721.332C452.125 724.457 452.75 725.707 454.625 726.957C457.125 728.832 458.375 731.332 455.25 733.207C452.75 735.082 449.625 735.707 448.375 731.957C448.375 731.332 447.75 730.707 447.125 730.707C440.25 726.957 439 721.332 441.5 714.457C444 707.582 441.5 701.957 437.125 696.957C430.25 689.457 429 680.082 427.75 670.707C425.25 655.707 424 640.707 421.5 625.707C419 613.207 415.875 601.332 412.75 589.457C412.125 585.707 409.625 582.582 407.75 579.457C404.625 573.832 403.375 568.832 407.75 563.207C410.25 560.082 410.875 556.332 408.375 552.582C406.5 550.082 404.625 546.957 404 544.457C402.75 540.707 402.125 536.957 402.75 533.207C402.75 530.082 404.625 526.957 404.625 523.832C405.25 519.457 404 515.707 399.625 513.207C394.625 510.082 389 505.707 389.625 498.207C390.25 495.082 392.125 491.957 393.375 488.832C398.375 478.832 404 469.457 408.375 458.832C412.125 450.082 409 440.082 408.375 431.332C407.75 425.082 407.75 419.457 407.75 413.207C407.75 409.457 406.5 406.332 404 403.832C402.125 402.582 400.25 400.707 399.625 398.832C398.375 396.332 397.75 393.207 399 391.332C404 382.582 404.625 373.207 401.5 363.832C400.875 362.582 400.875 360.707 401.5 359.457C403.375 351.332 400.875 343.832 399.625 336.332C397.125 323.832 394 311.957 390.875 300.082C388.375 290.707 383.375 283.207 377.75 275.082C372.125 267.582 369.625 258.207 371.5 248.832C374 235.082 377.125 221.332 380.25 208.207C381.5 201.957 384 195.707 386.5 189.457C387.75 185.707 387.125 182.582 385.25 178.832C384.625 176.957 384 174.457 384.625 173.207C389 162.582 385.25 152.582 383.375 142.582C382.75 140.082 379 137.582 377.125 135.082C376.5 134.457 375.25 133.832 374 133.207C366.5 128.207 364.625 124.457 368.375 116.332C373.375 103.207 361.5 92.582 351.5 90.707C335.875 86.957 319.625 83.832 304 81.332C298.375 80.707 292.75 82.582 287.125 83.207C285.25 83.207 282.75 84.457 280.875 84.457C278.375 84.457 276.5 83.2071 274 81.9571C274.625 80.0821 275.25 77.5821 276.5 75.7071C280.25 70.7071 285.875 66.957 292.125 65.707C304.625 63.832 315.875 58.8321 327.75 53.8321C338.375 49.4571 349.625 48.2071 360.875 50.7071C367.125 51.9571 372.125 49.457 376.5 46.957C386.5 40.707 395.875 34.4571 405.25 27.5821C409.625 24.4571 411.5 24.4571 414 28.8321C414.625 29.4571 415.25 30.707 415.25 31.332C417.75 38.832 424 41.957 431.5 42.582C439 43.207 447.125 44.4571 454.625 44.4571C459 44.4571 462.125 46.332 465.25 48.832C469.625 51.957 472.75 51.957 477.125 48.832C480.25 46.332 483.375 45.0821 487.125 43.2071C490.875 41.3321 495.25 39.457 498.375 36.332C503.375 31.332 508.375 28.8321 515.25 30.7071C521.5 32.5821 527.125 31.3321 532.125 27.5821C540.875 21.3321 550.25 18.2071 561.5 16.9571C572.75 15.7071 582.75 11.332 591.5 3.20702C596.5 -1.16798 599 -1.16795 603.375 3.83205C605.25 5.70705 607.125 8.20702 609 9.45702C612.75 11.957 616.5 15.082 620.875 15.707C625.875 16.957 629.625 18.8321 632.75 23.2071C636.5 28.2071 640.875 30.082 646.5 31.332C654.625 33.207 657.75 40.0821 655.25 47.5821C654.625 48.8321 655.875 51.3321 657.125 51.3321C660.25 51.9571 663.375 52.5821 666.5 52.5821C670.875 52.5821 674.625 53.832 675.875 58.207C677.125 62.582 673.375 65.082 670.25 67.582C669 68.832 666.5 69.4571 664.625 69.4571C657.125 71.3321 651.5 74.4571 650.25 82.5821C649 90.0821 643.375 95.0821 639.625 100.707C635.875 106.332 632.125 112.582 628.375 118.207C625.875 121.957 627.125 125.707 628.375 129.457C629.625 132.582 629.625 135.707 630.875 138.832C632.125 141.957 630.875 144.457 629.625 147.582C625.875 155.082 626.5 158.207 632.125 164.457C634.625 166.957 636.5 170.082 637.75 173.207C638.375 175.082 638.375 178.207 637.125 180.707C630.875 192.582 633.375 203.832 637.75 215.707C640.875 224.457 644.625 233.207 640.25 242.582C639 245.707 637.125 249.457 634.625 251.957C629.625 257.582 627.75 263.207 629.625 270.707C630.25 273.832 630.25 278.207 629.625 281.332C628.375 286.957 625.25 291.957 624.625 297.582C624 301.957 625.25 306.332 626.5 310.707C630.25 324.457 635.25 338.207 638.375 351.957C640.25 358.207 640.25 365.707 639.625 371.957C639.625 375.707 637.125 379.457 634.625 381.957C625.875 390.082 620.25 398.832 618.375 411.332C616.5 421.957 612.75 432.582 606.5 442.582C600.25 452.582 599 463.832 602.125 475.082C604 480.707 605.25 485.707 600.875 491.332C600.25 491.957 600.25 494.457 600.875 495.082C604.625 501.332 604.625 507.582 602.75 513.832C600.25 522.582 600.25 531.332 603.375 540.082C604.625 544.457 604 547.582 601.5 550.707C597.75 556.332 597.125 561.957 597.75 568.832C599 575.707 597.75 583.207 597.75 590.082C597.125 600.082 592.75 610.707 596.5 620.707C599 628.207 603.375 635.082 607.75 641.332C614 650.082 614 651.957 607.125 660.707C605.25 663.207 603.375 666.332 605.25 670.082C607.125 675.082 605.25 679.457 604.625 683.832C602.125 693.832 601.5 704.457 598.375 715.082C596.5 722.582 595.875 730.082 596.5 737.582C597.125 746.332 594.625 755.707 589.625 763.207C586.5 768.832 582.75 773.207 579 778.832C577.75 781.332 577.125 784.457 575.875 786.957C575.25 788.832 573.375 790.707 572.75 791.957C570.875 790.707 567.75 789.457 567.125 787.582C564 781.332 564.625 774.457 566.5 767.582C569.625 756.332 574 745.707 573.375 733.832C572.125 714.457 567.75 696.332 555.25 680.707C552.125 676.332 550.25 671.332 554 666.957C560.875 658.207 561.5 648.832 557.75 638.832C556.5 636.332 557.125 632.582 556.5 629.457C555.875 625.707 555.25 622.582 554.625 619.457C554.625 617.582 553.375 614.457 554.625 613.207C557.125 608.207 557.75 603.832 555.875 597.582C554.625 593.832 555.875 588.832 556.5 584.457C557.75 579.457 557.75 574.457 554.625 570.082C550.25 563.207 549.625 555.707 549.625 548.207C549.625 538.832 550.875 530.082 551.5 520.707C552.125 512.582 549 504.457 543.375 498.832C537.125 492.582 537.75 485.707 540.25 478.207C545.875 462.582 552.125 447.582 557.125 431.957C559.625 423.832 560.25 414.457 561.5 405.707C562.125 401.957 564 398.207 564.625 394.457C564.625 393.832 565.25 393.207 565.875 392.582C570.875 386.957 571.5 380.082 569.625 372.582C567.125 363.207 564.625 353.832 562.125 345.082C561.5 343.207 560.875 340.707 559.625 338.832C555.25 331.957 555.25 324.457 556.5 316.957C557.75 311.332 557.125 305.707 557.75 300.082C559 292.582 559.625 285.707 562.125 278.832C564 271.332 564 268.832 559 263.207C556.5 260.707 554 258.832 552.125 256.332C549 251.332 548.375 245.707 550.875 240.082C554.625 229.457 554 219.457 550.875 208.832C547.75 196.957 547.125 185.707 552.125 174.457C555.25 167.582 557.125 161.957 544 153.832C539 150.707 537.125 145.707 535.25 140.082C534.625 137.582 535.25 135.082 538.375 133.207C540.25 131.957 541.5 129.457 541.5 126.957C542.125 122.582 541.5 117.582 541.5 113.207C541.5 111.957 541.5 110.707 542.125 109.457C545.25 105.082 543.375 102.582 539.625 100.707C539 100.082 539 97.582 539 95.707C541.5 95.082 542.75 93.832 544 92.582Z" fill="#00FF01"/>
<path d="M779.625 258.832C780.875 260.082 782.125 261.332 783.375 261.957C790.875 266.332 794 271.957 791.5 280.082C789.625 287.582 786.5 294.457 784.625 301.957C780.875 315.082 784 326.957 792.125 337.582C797.125 344.457 801.5 351.957 804.625 360.082C805.875 362.582 804 366.332 804 369.457C804 373.832 803.375 378.832 803.375 383.207C804 390.082 801.5 396.332 797.75 401.957C791.5 411.332 788.375 421.957 785.25 432.582C784 436.957 785.875 442.582 787.125 446.957C788.375 450.707 790.875 454.457 792.75 458.207C796.5 465.082 795.875 472.582 792.75 479.457C790.25 484.457 787.125 489.457 784.625 494.457C780.875 501.332 782.125 507.582 784.625 514.457C786.5 520.082 789 525.707 789.625 531.332C790.25 535.082 789 539.457 787.125 541.957C783.375 546.957 782.75 551.957 784.625 557.582C785.875 561.957 785.25 565.707 784 570.082C782.75 572.582 783.375 575.707 783.375 578.207C784 581.332 785.25 585.082 786.5 588.207C788.375 592.582 787.75 595.707 785.25 599.457C777.75 613.207 770.25 626.957 764 640.707C761.5 646.332 760.25 652.582 759 658.207C757.125 666.332 759.625 675.082 755.25 683.207C754 685.082 751.5 686.957 749 688.207C748.375 688.832 745.25 686.957 745.25 685.707C743.375 676.957 742.125 667.582 740.25 658.832C737.75 648.832 739 639.457 741.5 629.457C745.25 614.457 744 600.082 735.25 586.957C730.875 580.707 730.875 575.707 737.125 570.082C745.25 563.207 744.625 553.832 746.5 545.082C747.75 536.957 746.5 530.082 742.125 522.582C740.875 520.707 741.5 516.332 742.75 515.082C751.5 504.457 752.75 491.957 753.375 478.832C753.375 471.332 752.75 463.832 753.375 456.332C754 442.582 755.875 429.457 756.5 415.707C757.125 408.832 755.875 401.332 754.625 394.457C753.375 388.832 750.875 383.207 748.375 377.582C742.125 363.832 742.125 349.457 747.75 335.707C752.125 324.457 748.375 315.082 742.75 306.332C737.125 296.332 732.125 286.332 729 275.082C728.375 273.207 728.375 270.082 729.625 268.207C732.75 262.582 732.75 257.582 731.5 251.957C730.875 248.832 732.125 245.082 734 241.957C735.875 238.207 735.875 236.332 733.375 233.207C730.25 230.082 727.75 227.582 725.25 224.457C722.75 221.332 722.75 218.207 725.875 215.082C729 211.957 732.125 209.457 735.25 206.332C737.125 204.457 738.375 202.582 739.625 200.082C742.75 193.832 742.75 192.582 738.375 187.582C736.5 185.082 735.25 182.582 736.5 179.457C737.75 177.582 738.375 175.082 739.625 172.582C740.875 169.457 741.5 166.332 740.25 162.582C739 158.207 739 153.207 739.625 148.832C739.625 138.832 740.875 129.457 740.875 119.457C740.875 113.207 735.875 110.082 730.875 108.207C726.5 105.707 721.5 104.457 716.5 102.582C714 101.957 710.875 101.957 708.375 103.207C699 107.582 690.875 104.457 683.375 98.8321C679 95.7071 674.625 93.8322 668.375 95.0822C664 95.7072 658.375 95.0821 654 93.8321C649.625 92.5821 649 90.7072 652.125 86.9572C654.625 83.8322 658.375 80.7071 661.5 78.2071L665.875 73.8321C669 69.4571 672.75 66.3322 678.375 66.9572C686.5 67.5822 693.375 65.7071 700.25 61.3321C704.625 58.2071 710.25 56.9571 715.25 56.3321C720.25 55.7071 722.75 53.2071 724 48.8321C726.5 39.4571 731.5 33.8321 741.5 31.9571C745.875 31.3321 749.625 27.5822 752.75 24.4572C758.375 18.2072 764 18.8322 767.125 26.3322C768.375 30.0822 772.75 32.5821 777.125 31.3321C786.5 28.2071 792.125 33.8321 796.5 40.7071C799.625 45.0821 802.75 48.2072 808.375 49.4572C812.125 50.7072 813.375 53.8322 812.125 57.5822V58.2071C809 67.5821 809 67.5821 817.125 72.5821C824 77.5821 825.875 82.5822 822.125 90.0822C819 96.9572 820.25 101.957 825.25 107.582C829 111.957 829.625 113.832 825.25 117.582C817.75 123.832 816.5 132.582 815.875 141.332C815.25 146.332 813.375 150.082 809.625 153.207C807.125 155.082 805.25 159.457 804 162.582C801.5 169.457 799 176.957 797.125 183.832C796.5 185.082 796.5 185.707 796.5 186.957C796.5 193.207 794.625 198.207 790.25 201.957C784.625 206.957 781.5 213.207 785.25 220.707C788.375 226.332 786.5 231.957 785.875 237.582C785.875 238.832 784.625 240.707 785.25 241.957C785.875 249.457 782.125 253.832 779.625 258.832Z" fill="#00FF01"/>
<path d="M155.625 1029.71C150 1029.71 145 1025.33 145 1019.08C145 1017.83 145 930.332 145.625 899.082C132.5 914.082 115 937.832 107.5 952.207C108.75 954.082 110.625 955.957 111.25 956.582L121.25 964.707L110 970.332C105 972.832 101.25 973.457 98.75 974.082H97.5C94.375 977.207 91.25 977.832 89.375 977.832C83.75 977.832 80 973.457 78.125 970.332C68.75 957.832 60 945.957 51.875 934.707C48.125 929.082 44.375 924.082 41.25 919.707C41.25 944.707 41.8751 984.082 41.8751 988.457C42.5001 991.582 41.25 994.082 39.375 996.582C37.5 999.082 34.375 1000.33 31.25 1000.33C26.25 1000.33 21.875 996.582 20.625 991.582C20 990.332 16.8751 987.207 15.0001 985.957C11.2501 983.457 9.37506 979.707 8.75006 975.332C8.12506 970.332 10.0001 964.707 13.7501 960.332C16.2501 951.582 16.8751 904.082 15.0001 896.582C14.3751 894.082 13.7501 892.832 13.7501 890.957C13.1251 888.457 13.125 887.832 9.375 884.082L0 875.957L11.8751 870.957C15.0001 869.707 19.375 867.207 23.75 865.332C26.25 864.082 29.3751 862.207 32.5001 860.957L36.8751 859.082L40.625 861.582C49.375 867.832 82.5 914.082 94.375 930.957C106.875 912.207 126.875 884.082 141.25 872.207C141.875 871.582 142.5 871.582 143.125 870.957C143.125 869.707 143.125 867.832 144.375 866.582C146.25 862.207 150.625 859.707 156.25 859.707C159.375 859.707 162.5 860.957 165 862.832C171.875 867.832 179.375 872.207 184.375 874.707C193.125 878.457 192.5 884.707 191.875 886.582C191.25 890.332 188.125 893.457 183.75 894.707V897.832C183.125 972.207 184.375 986.582 185 989.707C185.625 990.957 185.625 991.582 186.25 992.832C188.75 998.457 191.875 1006.58 182.5 1012.83C180.625 1014.08 178.125 1015.33 175.625 1017.21C173.125 1018.46 170 1020.96 168.125 1022.21C163.75 1027.21 160 1029.71 155.625 1029.71ZM1136.25 1022.21C1132.5 1022.21 1129.37 1020.33 1125 1017.21C1110 1006.58 1098.12 985.332 1086.87 965.332C1078.12 950.332 1068.13 932.207 1061.25 930.332C1054.38 928.457 1061.25 930.332 1060.63 930.332C1056.88 930.332 1050.63 933.457 1048.75 935.332C1048.13 942.832 1048.13 956.582 1048.13 969.082V992.832C1047.5 998.457 1043.12 1002.83 1037.5 1002.83C1033.13 1002.83 1028.75 1000.33 1026.88 995.957C1025.63 994.082 1018.75 988.457 1015.62 985.332C1010.62 982.832 1008.13 979.707 1006.88 975.332C1005 969.707 1007.5 964.707 1010.63 959.707C1012.5 952.207 1013.75 909.082 1013.75 896.582C1007.5 895.957 1002.5 891.582 1002.5 885.957C1002.5 882.832 1003.75 879.707 1006.25 877.832C1008.13 875.957 1010.63 875.332 1013.75 875.332C1015.63 874.707 1020 872.207 1031.88 864.707C1033.13 864.082 1033.75 863.457 1035 862.832C1036.88 861.582 1038.75 861.582 1041.25 861.582C1042.5 861.582 1049.37 861.582 1053.12 866.582L1056.25 867.207C1058.13 865.957 1059.38 865.957 1060.63 865.332C1061.88 865.332 1062.5 864.707 1064.38 864.707C1066.88 864.707 1070 864.707 1073.75 865.332C1078.75 865.332 1083.75 865.957 1088.75 865.957H1094.38C1096.88 865.332 1100 864.707 1101.88 864.082C1104.38 863.457 1106.87 862.832 1109.38 862.832H1110.63C1116.88 863.457 1120.63 867.832 1123.13 870.957L1125 872.832C1125.63 873.457 1126.25 874.707 1127.5 875.332C1131.87 880.957 1132.5 889.082 1128.75 895.332L1128.12 895.957C1126.25 899.082 1124.38 902.207 1123.13 910.957L1122.5 916.582L1116.88 917.832C1112.5 919.082 1106.88 920.957 1101.88 922.832C1105.63 924.707 1108.12 928.457 1108.75 935.332C1111.87 943.457 1143.12 985.332 1155.62 990.332C1161.87 992.832 1168.75 995.957 1168.12 1003.46C1167.5 1006.58 1165.63 1010.96 1158.13 1012.21C1153.75 1012.83 1147.5 1016.58 1145.63 1018.46C1143.13 1019.71 1140 1022.21 1136.25 1022.21ZM1058.13 889.082C1053.75 892.207 1048.75 897.832 1045 904.707C1043.75 906.582 1043.12 909.707 1043.12 913.457C1045 912.832 1047.5 911.582 1050.63 910.332H1051.88C1058.75 908.457 1066.88 905.332 1073.13 903.457C1077.5 902.207 1080.63 900.957 1083.13 900.332C1087.5 899.082 1090 894.707 1090 889.707H1082.5C1081.25 889.707 1077.5 889.707 1076.25 890.332C1075.63 890.332 1075 890.957 1074.37 890.957C1072.5 891.582 1070.63 892.832 1066.88 893.457H1065.62C1062.5 891.582 1059.38 890.332 1058.13 889.082ZM894.375 1000.96C890 1000.96 886.25 998.457 884.375 994.707C882.5 993.457 876.875 991.582 873.75 990.332C871.25 989.707 869.375 988.457 867.5 987.832C861.25 985.332 860 980.957 859.375 978.457C858.125 972.207 861.875 967.207 865 963.457C865.625 959.707 866.875 946.582 866.25 897.832V894.082C861.25 892.832 857.5 888.457 857.5 883.457C857.5 878.457 861.25 872.832 869.375 872.207C876.25 871.582 880.625 867.832 885 864.707C887.5 862.832 890 860.957 892.5 859.707H893.125C894.375 859.082 895.625 859.082 896.875 859.082C902.5 859.082 908.125 862.832 909.375 867.207C916.875 866.582 925 866.582 926.25 866.582C931.875 866.582 939.375 866.582 943.75 867.832H945.625C946.875 867.832 948.75 867.207 950 866.582C951.875 865.957 954.375 865.332 956.875 865.332C961.875 865.332 968.125 869.082 971.25 872.832C975 877.207 976.25 882.832 977.5 890.332C978.125 892.207 978.125 894.707 978.75 897.207V897.832C979.375 900.957 978.75 903.457 976.875 905.957C974.375 908.457 971.25 910.332 966.875 910.332C962.5 910.332 958.75 908.457 956.875 904.707C952.5 897.207 949.375 894.082 943.75 892.207C940 890.957 933.125 890.332 925.625 890.332C915.625 890.332 907.5 891.582 903.75 892.207C902.5 896.582 901.25 906.582 901.875 912.207C906.25 912.832 913.125 912.832 920.625 912.832H929.375C930 911.582 933.125 907.207 939.375 907.207H940C945.625 907.207 948.75 910.332 950 912.207C951.25 914.082 953.125 917.832 950.625 923.457V924.082C949.375 926.582 948.125 931.582 948.125 932.832C948.125 938.457 943.75 943.457 938.125 943.457C932.5 943.457 928.125 939.082 927.5 933.457C916.25 933.457 906.875 934.082 903.125 935.332C900.625 942.207 901.875 965.957 904.375 972.832C908.125 974.082 916.25 975.957 928.75 975.957C941.25 975.957 952.5 974.707 956.875 973.457C965.625 970.957 967.5 968.457 968.75 962.207C970 957.832 974.375 954.707 978.75 954.707C984.375 954.707 988.125 959.082 988.125 964.707C988.125 965.332 988.125 975.332 986.25 982.832C985 988.457 978.125 999.082 968.75 999.082H968.125C964.375 998.457 962.5 997.207 960.625 995.957C945.625 997.832 926.875 997.832 919.375 997.832H905.625C904.375 997.832 903.125 997.832 902.5 997.207C901.875 999.082 898.75 1000.96 894.375 1000.96ZM771.875 1002.21C767.5 1002.21 763.75 1000.33 761.875 996.582C761.25 995.957 758.125 993.457 748.125 989.707C743.125 987.832 741.25 984.707 740 982.207C737.5 976.582 740.625 970.332 741.875 966.582C741.875 965.957 742.5 964.707 742.5 964.707C744.375 957.207 746.25 905.332 745 890.332C741.875 889.707 736.875 889.707 731.25 889.707C723.125 889.707 718.125 890.957 716.875 890.957C712.5 892.832 710 894.707 705.625 902.207C703.75 905.957 700 907.832 695 907.832C690.625 907.832 686.875 905.957 685 902.832C683.125 900.332 683.125 896.582 684.375 894.082C685 892.832 685.625 890.957 686.25 889.082C688.75 881.582 690 876.582 692.5 873.457C695 870.332 703.75 865.957 708.75 865.957C711.875 865.957 713.75 867.207 715.625 867.832C717.5 868.457 718.75 869.082 721.875 869.082H806.875C812.5 869.082 814.375 868.457 816.875 867.832C818.125 867.207 819.375 867.207 821.875 866.582C822.5 866.582 822.5 866.582 823.125 865.957C824.375 865.332 826.25 865.332 828.125 865.332C831.875 865.332 833.75 866.582 836.875 869.082L838.125 869.707C843.125 872.832 843.75 878.457 845 886.582C845.625 889.082 845.625 890.957 846.25 892.832V893.457C846.875 896.582 846.25 899.707 844.375 902.207C842.5 904.707 838.75 906.582 835 906.582C830.625 906.582 826.25 904.082 824.375 900.332C823.75 899.707 823.75 898.457 823.125 897.832C821.875 895.332 821.25 894.082 816.25 891.582C813.125 890.332 806.25 889.707 798.75 889.707C791.875 889.707 786.875 890.332 784.375 890.957C781.875 905.332 782.5 961.582 782.5 981.582V993.457C782.5 997.832 777.5 1002.21 771.875 1002.21ZM283.125 1036.58C277.5 1033.46 273.75 1028.46 273.125 1022.83L271.25 1009.71L279.375 1012.83C279.375 1010.96 280 1007.21 279.375 1001.58H276.875C270.625 1000.96 266.875 998.457 265 993.457V992.832C265 992.207 264.375 992.207 261.875 990.957C226.875 972.832 210 930.957 211.875 900.332C211.875 896.582 211.875 896.582 209.375 894.082L208.125 892.832L198.75 883.457L211.25 879.707C213.125 879.082 218.75 876.582 233.75 867.207C235 865.957 236.875 865.332 238.75 865.332C242.5 865.332 246.25 867.832 249.375 870.332L250.625 871.582H275.625V870.957H276.25V867.207V855.332C273.125 853.457 271.875 850.957 271.875 849.082C270.625 845.332 269.375 840.957 271.25 837.207C272.5 835.332 274.375 833.457 276.875 832.832C278.125 832.207 280 832.207 282.5 832.207C285 832.207 288.125 832.207 290 832.832H292.5C293.75 832.832 295 832.207 296.25 832.207C300.625 832.207 303.75 834.082 305 835.957C308.75 839.707 308.125 844.707 307.5 849.082V852.832C307.5 859.082 306.875 865.332 306.25 870.957C307.5 870.957 308.75 870.957 310.625 871.582C313.75 871.582 316.875 872.207 320 872.207H320.625C323.125 872.207 326.25 871.582 328.75 871.582C331.875 870.957 335 870.957 338.125 870.957C340.625 870.957 342.5 870.957 343.75 871.582C354.375 874.707 367.5 882.832 371.25 888.457C375 894.707 370.625 900.332 368.75 902.832C367.5 904.707 365.625 905.957 365.625 908.457C365.625 909.707 365 914.707 365 919.082C363.75 947.207 362.5 960.332 357.5 965.957C348.125 975.332 337.5 980.332 325.625 985.332C320.625 987.207 315.625 989.707 310 992.207C308.75 994.707 306.25 997.207 303.125 998.457V1004.71C303.125 1005.96 303.75 1009.08 304.375 1010.96C306.25 1017.83 308.125 1025.33 304.375 1030.96C303.125 1033.46 300 1037.21 293.125 1037.21H288.75L285 1039.71L283.125 1036.58ZM305.625 894.082C304.375 900.332 305 907.207 305.625 912.207C306.25 918.457 305.625 924.082 305 929.707C304.375 933.457 303.75 937.207 304.375 940.957C304.375 947.832 304.375 954.082 305 960.957C315 957.207 326.875 947.832 329.375 944.082C330 940.332 330 932.207 330 920.332C330 915.332 330 901.582 328.125 898.457C327.5 897.207 323.125 894.082 305.625 893.457C306.25 893.457 305.625 894.082 305.625 894.082ZM249.375 897.207C246.875 913.457 259.375 941.582 275.625 957.832V951.582C275.625 945.332 276.25 939.082 276.25 934.082C275.625 925.332 276.25 915.332 276.875 905.957C276.875 901.582 277.5 897.207 277.5 892.832H276.25C275 892.832 273.125 892.832 271.875 892.207C271.875 892.832 271.25 892.832 271.25 893.457C269.375 895.957 266.25 899.707 261.25 900.957H258.75C254.375 899.707 251.25 898.457 249.375 897.207ZM506.875 1002.21C501.875 1002.21 496.875 998.457 496.875 991.582C496.875 988.457 496.875 985.957 497.5 983.457C497.5 980.957 498.125 978.457 498.125 976.582C498.125 973.457 498.125 970.957 497.5 970.332C491.25 964.082 441.25 923.457 419.375 907.832C419.375 920.332 420 932.207 420 944.707C420.625 960.332 420.625 975.957 420.625 992.207C420.625 997.207 416.875 1002.83 410 1002.83C406.875 1002.83 402.5 1001.58 400 995.957L399.375 995.332V994.707C398.75 993.457 397.5 992.207 396.25 990.957C393.125 987.832 389.375 984.082 389.375 977.832C389.375 972.832 391.25 969.082 393.125 965.957C393.125 965.332 393.75 965.332 393.75 964.707C394.375 963.457 395 957.832 394.375 938.457V930.957C394.375 920.332 394.375 909.707 393.75 899.082V897.832C393.75 894.082 393.125 888.457 390.625 886.582L375 877.832L391.875 872.207C399.375 869.707 403.75 867.832 408.125 864.082L421.25 852.832V865.957C436.25 877.207 450.625 889.082 465 900.957L476.875 910.332C480 912.832 482.5 914.707 485.625 917.207C489.375 920.332 493.125 923.457 496.875 925.957V893.457V857.832V854.707V850.332C496.875 849.082 496.25 848.457 495 847.207C493.75 845.957 491.25 843.457 491.25 839.082C491.25 833.457 495.625 827.832 503.125 827.832C506.25 827.832 508.75 829.082 510 830.332L510.625 830.957L511.875 831.582C515 834.707 518.75 837.832 522.5 839.707L523.125 840.332C525 841.582 529.375 844.082 529.375 849.707C529.375 851.582 528.75 856.582 522.5 859.082V965.957C522.5 966.582 523.125 968.457 523.75 969.707C525 972.207 526.25 975.332 526.25 979.082C526.25 984.082 524.375 986.582 521.875 988.457C519.375 990.332 518.125 992.832 516.25 995.332L515.625 995.957C513.75 999.707 510.625 1002.21 506.875 1002.21ZM588.75 1027.83C585 1027.83 575 1027.21 571.25 1022.83C570 1020.96 569.375 1018.46 569.375 1017.21C565.625 1014.71 561.875 1011.58 558.125 1008.46C554.375 1005.33 550 1001.58 545.625 998.457C541.25 995.332 540 990.957 541.25 985.957C543.125 980.332 548.75 976.582 555 976.582C559.375 976.582 563.125 977.832 566.875 980.957C571.25 984.707 577.5 989.082 581.875 991.582C583.125 992.207 583.75 992.832 585 993.457C586.25 994.082 588.75 994.707 590.625 994.707C592.5 994.707 595 994.082 598.125 992.832C606.25 987.207 621.875 948.457 625 930.332C625 929.082 625 928.457 624.375 928.457H595.625C590 929.707 588.125 930.957 587.5 931.582C585 934.707 581.25 936.582 576.875 936.582C571.875 936.582 568.125 934.082 565.625 929.707C564.375 927.207 561.25 922.832 558.125 917.832C553.125 910.332 547.5 902.207 545 897.207C543.75 895.957 541.25 892.832 542.5 887.832C543.75 882.832 548.125 881.582 550 880.957C551.875 880.332 551.875 879.707 554.375 878.457C555.625 877.832 556.875 876.582 558.75 875.332C561.25 873.457 563.75 872.832 566.25 872.832C569.375 872.832 571.875 874.082 573.125 874.707C573.125 874.707 573.75 874.707 573.75 875.332C574.375 875.332 575.625 874.707 576.25 874.707H576.875C580 873.457 586.875 872.207 594.375 870.332C601.25 869.082 611.875 866.582 614.375 865.332L615.625 864.707C619.375 862.832 623.125 860.957 627.5 860.957C630.625 860.957 633.125 861.582 636.875 863.457C640 864.707 642.5 866.582 645.625 868.457C650.625 872.207 656.25 875.332 662.5 876.582C667.5 877.832 671.25 882.207 670.625 887.207C670 892.832 665 896.582 659.375 896.582H656.875C656.25 896.582 655.625 896.582 655 895.957C652.5 895.332 648.75 894.707 646.25 894.707H645C643.125 895.332 641.875 895.332 640 895.957C635 897.207 630.625 898.457 618.75 898.457C615.625 898.457 611.25 897.832 603.75 897.207C599.375 896.582 594.375 895.957 593.125 895.957H590C591.875 899.707 594.375 903.457 596.25 905.957H633.125C636.25 905.957 638.125 905.332 640.625 903.457C643.125 902.207 645.625 901.582 648.125 901.582C653.125 901.582 658.125 904.082 661.25 908.457C663.125 910.957 666.25 913.457 671.25 915.957C675.625 917.832 678.125 920.957 678.75 924.707C680 929.707 676.875 934.082 675.625 935.957C675 936.582 675 937.207 674.375 937.207L673.75 938.457C661.875 962.207 633.75 1027.83 588.75 1027.83Z" fill="#969897"/>
<path d="M179.375 883.457C173.125 880.957 165 875.332 158.125 870.957C153.75 867.832 148.125 871.582 150 874.082C151.25 875.957 146.875 879.082 144.375 880.332C129.375 892.832 107.5 923.457 94.375 944.082C93.125 945.332 91.25 945.957 89.375 943.457C86.875 940.332 41.875 875.957 33.75 870.332C26.25 874.082 18.75 877.832 13.125 880.332C21.25 887.207 19.375 889.707 21.25 895.957C23.75 902.207 23.75 962.207 19.375 967.207C15.625 971.582 13.75 977.832 18.75 981.582C21.875 984.082 26.875 989.707 27.5 991.582C28.125 995.957 33.125 994.707 33.125 991.582C32.5 987.207 31.875 907.207 31.875 902.832C31.875 900.332 35 901.582 38.75 907.207C48.75 919.082 65 943.457 83.125 967.207C85.625 970.957 87.5 972.832 90 969.707C93.75 965.332 95.625 968.457 105 963.457C101.875 960.957 96.25 954.082 96.875 952.207C105.625 934.707 134.375 895.957 148.125 883.457C150.625 880.957 152.5 885.332 152.5 889.707C151.875 894.707 151.875 1012.21 151.875 1019.08C151.875 1022.21 156.875 1022.21 157.5 1018.46C158.125 1016.58 170 1010.33 174.375 1007.21C179.375 1004.08 177.5 1001.58 174.375 993.457C171.875 986.582 173.125 899.082 173.125 894.082C173.125 890.957 174.375 888.457 177.5 888.457C182.5 888.457 184.375 885.957 179.375 883.457ZM1151.88 997.832C1135.63 990.957 1101.25 942.832 1100.62 936.582C1100 930.332 1098.75 929.707 1093.75 928.457C1085 925.957 1075.62 920.332 1075.62 920.332C1075.62 920.332 1071.87 917.832 1077.5 917.832C1083.12 917.832 1086.88 917.207 1091.25 918.457C1099.37 914.707 1108.12 911.582 1115 909.707C1116.25 898.457 1119.37 894.082 1121.25 890.332C1123.12 887.207 1123.13 882.832 1120.63 879.707L1118.75 877.832C1115.62 874.707 1113.75 870.957 1109.37 870.332C1106.87 870.332 1101.25 872.832 1095 873.457C1085.63 874.707 1065 872.207 1062.5 872.832C1058.12 874.082 1040.62 887.207 1040.62 884.707C1040.62 881.582 1040.63 879.707 1041.88 877.207C1043.75 875.957 1045.63 874.082 1048.13 872.832H1046.87C1049.37 870.332 1041.25 868.457 1038.75 869.707C1039.38 869.082 1018.13 883.457 1014.38 882.832C1008.75 882.207 1009.38 887.832 1014.38 887.832C1018.75 887.832 1021.87 890.332 1021.87 895.332C1021.87 896.582 1020.63 957.832 1017.5 962.832C1013.13 969.707 1011.88 974.082 1020 977.832C1020 977.832 1032.5 987.832 1034.37 991.582C1035.62 994.707 1040 995.332 1040.62 991.582C1041.25 977.832 1040 944.082 1041.88 931.582C1042.5 927.832 1056.88 919.082 1064.38 921.582C1083.75 927.207 1103.75 990.332 1130.62 1009.71C1137.5 1014.71 1137.5 1014.08 1140.62 1010.96C1142.5 1009.08 1150.63 1004.08 1157.5 1002.83C1163.13 1002.83 1158.13 1000.33 1151.88 997.832ZM1053.75 917.207C1044.38 921.582 1035.63 924.082 1035 920.957C1034.37 917.832 1033.12 906.582 1037.5 900.332C1042.5 892.207 1049.37 884.707 1055.62 880.957C1061.25 877.832 1060.63 884.082 1066.25 884.082C1069.38 884.082 1070.63 882.207 1073.75 880.957C1076.25 880.332 1080.63 880.332 1082.5 880.332C1087.5 880.332 1092.5 880.332 1095.63 882.207C1097.5 883.457 1097.5 885.957 1097.5 887.207C1098.13 897.832 1092.5 904.707 1085 907.207C1079.38 908.457 1065 914.082 1053.75 917.207ZM977.5 962.832C975 972.832 970.625 976.582 960 979.707C948.125 983.457 911.875 984.707 900 978.457C894.375 975.332 891.875 932.832 898.75 928.457C902.5 925.332 928.125 925.332 933.125 925.332C936.875 925.332 936.875 931.582 936.875 932.832C936.875 935.957 941.25 936.582 941.25 932.832C941.25 930.332 943.125 924.082 945 920.332C946.25 917.207 945 915.332 941.875 914.707C937.5 914.707 940 919.082 933.125 920.332C930 920.957 901.875 920.957 897.5 919.082C893.125 917.832 895.625 887.832 900 885.332C906.25 881.582 935.625 880.332 948.125 884.082C956.875 886.582 961.875 892.832 966.25 900.332C967.5 903.457 973.75 901.582 973.125 899.082C970.625 889.082 970 882.207 966.875 878.457C964.375 875.957 960 873.457 958.125 873.457C954.375 873.457 950.625 877.207 943.125 875.957C935.625 874.707 908.125 874.707 900.625 877.207C896.875 877.832 898.75 874.082 901.875 872.207C903.75 870.957 899.375 866.582 895.625 867.832C890.625 869.707 883.125 879.707 870 880.332C863.125 880.957 865 886.582 870 885.957C874.375 885.332 874.375 887.832 874.375 892.832C874.375 897.832 875.625 963.457 871.875 967.207C866.875 972.207 865 976.582 870.625 979.707C876.875 982.207 890 986.582 891.25 989.707C892.5 992.832 896.875 992.832 896.875 989.707C896.875 984.082 900 986.582 906.875 987.207C916.875 987.832 945 987.832 962.5 985.332C967.5 984.707 964.375 987.832 969.375 988.457C973.75 988.457 978.125 982.207 979.375 978.457C980.625 972.832 980.625 964.707 980.625 961.582C980.625 958.457 978.125 960.957 977.5 962.832ZM834.375 875.957C828.75 872.207 830 872.207 824.375 874.082C817.5 875.957 817.5 877.207 805 877.207C788.75 876.582 738.125 877.832 723.125 877.832C715 877.832 713.125 874.707 710 874.707C706.875 874.707 700.625 878.457 700 879.082C697.5 882.207 694.375 894.082 693.125 897.832C691.875 900.957 699.375 901.582 700.625 899.082C705.625 889.707 709.375 887.207 715.625 884.082C723.75 880.332 747.5 881.582 753.125 884.082C757.5 885.957 753.75 960.957 751.875 967.207C750.625 971.582 744.375 979.707 751.875 982.207C758.125 984.707 768.75 989.707 770 992.832C770.625 994.707 775.625 994.707 775.625 992.832C775.625 970.332 774.375 887.207 779.375 884.082C785 880.957 810.625 879.707 821.25 884.082C831.25 888.457 831.25 892.207 833.75 895.957C835 899.082 841.25 897.832 840.625 894.707C837.5 888.457 836.875 877.832 834.375 875.957ZM366.875 891.582C365 889.082 354.375 881.582 343.75 877.832C340 876.582 330 879.082 323.125 879.082C315 879.082 306.25 877.207 298.75 877.832V877.207V875.332H300L301.875 850.957C302.5 842.207 304.375 837.207 295.625 839.082C294.375 839.082 284.375 837.832 281.25 839.082C279.375 839.707 281.875 845.332 281.875 845.957C281.875 848.457 285.625 845.957 286.25 850.332C286.875 855.957 286.25 875.332 286.875 878.457H286.25V879.082C280 878.457 248.125 879.707 250 879.082C246.875 877.207 241.875 872.207 240 873.457C233.125 878.457 221.25 885.332 215.625 887.207C219.375 890.957 221.875 892.832 221.25 900.957C219.375 930.332 236.875 968.457 266.875 983.457C278.125 989.082 270.625 991.582 279.375 992.832C283.125 993.457 285.625 993.457 288.125 992.832C289.375 1004.08 290.625 1024.08 281.875 1020.96C282.5 1024.71 285 1027.21 287.5 1028.46C290 1026.58 293.125 1027.83 295.625 1027.83C297.5 1027.83 299.375 1027.21 300 1025.33C302.5 1020.33 297.5 1008.46 297.5 1002.83V990.957C302.5 990.332 305 989.082 305.625 985.332C323.75 975.332 340.625 972.207 353.125 959.082C358.75 952.832 358.125 911.582 359.375 905.332C360.625 897.832 368.125 894.707 366.875 891.582ZM283.75 933.457C284.375 944.707 282.5 962.207 283.125 973.457C260 961.582 234.375 915.957 241.875 891.582C242.5 890.332 245.625 887.832 249.375 887.832C251.875 888.457 255 891.582 258.125 890.957C263.125 889.707 264.375 882.207 270 882.207C273.125 882.207 280.625 883.457 285 883.457C285 885.957 284.375 888.457 284.375 890.332C285 905.332 283.75 920.332 283.75 933.457ZM336.875 946.582C335.625 952.207 311.25 970.957 296.875 970.957C296.875 960.957 296.25 951.582 296.25 941.582C296.25 932.207 298.75 922.832 298.125 913.457C297.5 906.582 296.875 899.082 298.125 892.832C298.75 889.707 298.75 887.207 298.125 884.707C305 884.707 328.75 884.707 335 893.457C338.125 897.832 338.125 909.707 338.125 920.332C338.125 931.582 338.125 942.207 336.875 946.582ZM518.75 847.207C513.75 844.707 510 840.957 506.25 837.207C505.625 836.582 505 835.957 503.75 835.957C501.25 835.957 500 837.832 500 839.082C500 840.957 504.375 842.207 505.625 849.082V928.457C505.625 929.082 506.875 939.707 504.375 939.707C503.125 939.707 501.25 938.457 500 937.832C490 930.957 481.25 922.832 472.5 915.957C453.125 900.332 433.75 884.707 414.375 869.707C408.75 874.707 403.125 876.582 395.625 879.707C402.5 883.457 402.5 892.832 402.5 898.457C403.75 910.957 403.125 924.082 403.125 936.582C403.125 940.957 403.125 963.457 401.875 967.207C400.625 970.332 398.125 973.457 398.125 976.582C398.125 982.207 405.625 984.707 408.125 990.957C408.75 991.582 409.375 993.457 411.25 993.457C413.125 993.457 413.75 991.582 413.75 990.957C413.75 959.707 412.5 928.457 412.5 896.582C412.5 895.957 412.5 893.457 414.375 893.457C418.75 893.457 497.5 956.582 505 964.707C507.5 967.207 507.5 973.457 507.5 975.957C507.5 980.957 506.25 985.957 506.25 990.957C506.25 991.582 506.25 993.457 508.125 993.457C509.375 993.457 511.25 991.582 511.25 990.957C513.125 987.832 515 984.707 518.125 982.207C519.375 980.957 520 980.332 520 978.457C520 974.082 516.25 969.707 516.25 965.332V857.832C516.25 856.582 516.25 852.832 518.125 852.207C520 851.582 522.5 851.582 522.5 849.707C521.875 848.457 520 847.832 518.75 847.207ZM666.25 921.582C661.25 919.082 656.25 915.957 653.125 911.582C651.25 908.457 646.25 907.207 643.125 909.082C639.375 911.582 636.25 912.832 631.25 912.832C625.625 912.832 598.75 913.457 591.25 912.832C585.625 909.082 578.75 895.332 577.5 892.207C575.625 887.207 583.125 887.207 590.625 887.207C593.75 887.207 611.875 889.707 616.875 889.707C631.875 889.707 633.75 887.832 641.875 886.582C646.25 885.332 654.375 887.832 656.875 887.832C661.25 889.082 663.125 884.707 660 883.457C648.75 880.957 640 872.832 632.5 869.707C626.25 866.582 623.75 868.457 617.5 871.582C611.25 874.707 585.625 878.457 579.375 880.957C577.5 881.582 573.75 883.457 571.875 882.832C567.5 881.582 566.25 879.082 563.125 881.582C556.875 886.582 556.875 886.582 552.5 888.457C547.5 890.332 551.25 891.582 551.875 893.457C556.25 900.957 568.75 919.707 572.5 925.957C575 930.332 580 928.457 581.25 926.582C583.75 923.457 588.125 921.582 594.375 920.957H623.75C628.75 920.957 633.75 925.332 632.5 932.207C630 949.707 613.75 992.832 602.5 1000.33C595 1005.33 585.625 1004.71 580.625 1000.96C577.5 999.082 568.75 992.832 562.5 987.832C555 981.582 546.875 988.457 551.25 992.207C560 998.457 567.5 1005.96 575 1011.58C578.75 1014.08 577.5 1017.21 578.75 1019.08C579.375 1020.33 585.625 1020.96 590 1020.96C630 1020.96 657.5 955.332 666.875 934.082C666.875 929.082 673.75 925.957 666.25 921.582Z" fill="white"/>
<path d="M210.625 1107.83H240V1098.46H210.625V1085.96H261.25V1076.58H195.625V1132.21H261.875V1121.58H210.625V1107.83Z" fill="url(#paint2_linear_508_22)"/>
<path d="M396.25 1105.33C396.25 1107.21 396.25 1110.33 396.875 1114.71C394.375 1112.21 391.875 1110.33 389.375 1108.46L343.75 1075.96H333.75V1131.58H347.5V1101.58C347.5 1099.71 347.5 1097.21 346.875 1092.83C348.75 1094.71 350.625 1095.96 352.5 1097.21L400 1131.58H410V1075.96H396.25V1105.33Z" fill="url(#paint3_linear_508_22)"/>
<path d="M499.375 1107.83H529.375V1098.46H499.375V1085.96H550.625V1076.58H484.375V1132.21H551.25V1121.58H499.375V1107.83Z" fill="url(#paint4_linear_508_22)"/>
<path d="M677.5 1110.96C687.5 1110.96 691.875 1107.83 691.875 1100.33V1087.21C691.875 1079.71 687.5 1076.58 677.5 1076.58H622.5V1132.21H637.5V1110.96H651.875L678.125 1132.21H699.375L669.375 1110.96H677.5ZM636.875 1101.58V1085.96H670.625C675 1085.96 677.5 1086.58 677.5 1090.33V1097.21C677.5 1100.96 675.625 1101.58 670.625 1101.58H636.875Z" fill="url(#paint5_linear_508_22)"/>
<path d="M822.5 1076.58H778.125C766.25 1076.58 761.875 1079.08 761.875 1089.71V1119.08C761.875 1129.71 765.625 1132.21 778.125 1132.21H822.5C834.375 1132.21 838.75 1129.71 838.75 1119.08V1099.71H799.375V1109.08H823.75V1121.58H776.875V1086.58H823.75V1092.83L838.125 1090.33V1089.08C838.125 1079.08 833.75 1076.58 822.5 1076.58Z" fill="url(#paint6_linear_508_22)"/>
<path d="M963.75 1076.58L941.875 1097.83L919.375 1076.58H899.375L933.125 1107.21V1131.58H948.125V1106.58L981.875 1076.58H963.75Z" fill="url(#paint7_linear_508_22)"/>
<path d="M1166.88 1129.08C1166.88 1124.08 1162.5 1119.71 1157.5 1119.71C1151.88 1119.71 1148.12 1124.08 1148.12 1129.08C1148.12 1134.08 1152.5 1138.46 1157.5 1138.46C1162.5 1138.46 1166.88 1134.71 1166.88 1129.08ZM1156.87 1137.83C1151.87 1137.83 1148.12 1134.08 1148.12 1129.08C1148.12 1124.08 1151.87 1120.33 1156.87 1120.33C1161.87 1120.33 1165.62 1124.08 1165.62 1129.08C1165.62 1134.08 1161.87 1137.83 1156.87 1137.83Z" fill="url(#paint8_linear_508_22)"/>
<path d="M1161.87 1127.21C1161.87 1125.33 1160 1124.08 1158.13 1124.08H1153.75V1134.08H1156.25V1130.96H1158.13L1160 1134.08H1162.5L1160 1130.33C1160.63 1130.33 1161.87 1129.08 1161.87 1127.21ZM1157.5 1129.08H1155V1125.96H1157.5C1158.75 1125.96 1159.37 1126.58 1159.37 1127.21C1159.37 1128.46 1158.75 1129.08 1157.5 1129.08Z" fill="url(#paint9_linear_508_22)"/>
<path d="M210.625 1107.83H240V1098.46H210.625V1085.96H261.25V1076.58H195.625V1132.21H261.875V1121.58H210.625V1107.83ZM396.25 1105.33C396.25 1107.21 396.25 1110.33 396.875 1114.71C394.375 1112.21 391.875 1110.33 389.375 1108.46L343.75 1075.96H333.75V1131.58H347.5V1101.58C347.5 1099.71 347.5 1097.21 346.875 1092.83C348.75 1094.71 350.625 1095.96 352.5 1097.21L400 1131.58H410V1075.96H396.25V1105.33ZM499.375 1107.83H529.375V1098.46H499.375V1085.96H550.625V1076.58H484.375V1132.21H551.25V1121.58H499.375V1107.83ZM677.5 1110.96C687.5 1110.96 691.875 1107.83 691.875 1100.33V1087.21C691.875 1079.71 687.5 1076.58 677.5 1076.58H622.5V1132.21H637.5V1110.96H651.875L678.125 1132.21H699.375L669.375 1110.96H677.5ZM636.875 1101.58V1085.96H670.625C675 1085.96 677.5 1086.58 677.5 1090.33V1097.21C677.5 1100.96 675.625 1101.58 670.625 1101.58H636.875ZM822.5 1076.58H778.125C766.25 1076.58 761.875 1079.08 761.875 1089.71V1119.08C761.875 1129.71 765.625 1132.21 778.125 1132.21H822.5C834.375 1132.21 838.75 1129.71 838.75 1119.08V1099.71H799.375V1109.08H823.75V1121.58H776.875V1086.58H823.75V1092.83L838.125 1090.33V1089.08C838.125 1079.08 833.75 1076.58 822.5 1076.58ZM963.75 1076.58L941.875 1097.83L919.375 1076.58H899.375L933.125 1107.21V1131.58H948.125V1106.58L981.875 1076.58H963.75ZM1166.88 1129.08C1166.88 1124.08 1162.5 1119.71 1157.5 1119.71C1151.88 1119.71 1148.13 1124.08 1148.13 1129.08C1148.13 1134.08 1152.5 1138.46 1157.5 1138.46C1162.5 1138.46 1166.88 1134.71 1166.88 1129.08ZM1156.88 1137.83C1151.88 1137.83 1148.13 1134.08 1148.13 1129.08C1148.13 1124.08 1151.88 1120.33 1156.88 1120.33C1161.88 1120.33 1165.62 1124.08 1165.62 1129.08C1165.62 1134.08 1161.88 1137.83 1156.88 1137.83Z" fill="#00FF01"/>
<path d="M1161.87 1127.21C1161.87 1125.33 1160 1124.08 1158.13 1124.08H1153.75V1134.08H1156.25V1130.96H1158.13L1160 1134.08H1162.5L1160 1130.33C1160.63 1130.33 1161.87 1129.08 1161.87 1127.21ZM1157.5 1129.08H1155V1125.96H1157.5C1158.75 1125.96 1159.37 1126.58 1159.37 1127.21C1159.37 1128.46 1158.75 1129.08 1157.5 1129.08Z" fill="#00FF01"/>
<defs>
<linearGradient id="paint0_linear_508_22" x1="273.394" y1="397.582" x2="675.256" y2="397.582" gradientUnits="userSpaceOnUse">
<stop stop-color="#C9D93D"/>
<stop offset="1" stop-color="#019E49"/>
</linearGradient>
<linearGradient id="paint1_linear_508_22" x1="648.906" y1="355.151" x2="826.144" y2="355.151" gradientUnits="userSpaceOnUse">
<stop stop-color="#C9D93D"/>
<stop offset="1" stop-color="#019E49"/>
</linearGradient>
<linearGradient id="paint2_linear_508_22" x1="195.487" y1="1104.14" x2="262.169" y2="1104.14" gradientUnits="userSpaceOnUse">
<stop stop-color="#C9D93D"/>
<stop offset="1" stop-color="#019E49"/>
</linearGradient>
<linearGradient id="paint3_linear_508_22" x1="333.625" y1="1104.14" x2="409.569" y2="1104.14" gradientUnits="userSpaceOnUse">
<stop stop-color="#C9D93D"/>
<stop offset="1" stop-color="#019E49"/>
</linearGradient>
<linearGradient id="paint4_linear_508_22" x1="484.656" y1="1104.14" x2="551.331" y2="1104.14" gradientUnits="userSpaceOnUse">
<stop stop-color="#C9D93D"/>
<stop offset="1" stop-color="#019E49"/>
</linearGradient>
<linearGradient id="paint5_linear_508_22" x1="622.113" y1="1104.14" x2="698.681" y2="1104.14" gradientUnits="userSpaceOnUse">
<stop stop-color="#C9D93D"/>
<stop offset="1" stop-color="#019E49"/>
</linearGradient>
<linearGradient id="paint6_linear_508_22" x1="761.65" y1="1104.16" x2="838.219" y2="1104.16" gradientUnits="userSpaceOnUse">
<stop stop-color="#C9D93D"/>
<stop offset="1" stop-color="#019E49"/>
</linearGradient>
<linearGradient id="paint7_linear_508_22" x1="899.5" y1="1104.14" x2="981.588" y2="1104.14" gradientUnits="userSpaceOnUse">
<stop stop-color="#C9D93D"/>
<stop offset="1" stop-color="#019E49"/>
</linearGradient>
<linearGradient id="paint8_linear_508_22" x1="1147.55" y1="1129.36" x2="1166.73" y2="1129.36" gradientUnits="userSpaceOnUse">
<stop stop-color="#C9D93D"/>
<stop offset="1" stop-color="#019E49"/>
</linearGradient>
<linearGradient id="paint9_linear_508_22" x1="1153.19" y1="1129.07" x2="1162.02" y2="1129.07" gradientUnits="userSpaceOnUse">
<stop stop-color="#C9D93D"/>
<stop offset="1" stop-color="#019E49"/>
</linearGradient>
</defs>
</svg>
