<svg width="2428" height="1200" viewBox="0 0 2428 1200" fill="none" xmlns="http://www.w3.org/2000/svg">
<path fill-rule="evenodd" clip-rule="evenodd" d="M2380.81 256.69C2368.47 256.69 2356.63 261.594 2347.9 270.322C2339.17 279.051 2334.27 290.889 2334.27 303.232C2334.27 315.576 2339.17 327.414 2347.9 336.143C2356.63 344.871 2368.47 349.774 2380.81 349.774C2386.93 349.769 2392.98 348.557 2398.63 346.207C2404.27 343.858 2409.4 340.416 2413.72 336.081C2418.03 331.746 2421.44 326.602 2423.77 320.944C2426.09 315.286 2427.27 309.225 2427.24 303.109C2427.24 290.797 2422.35 278.99 2413.64 270.285C2404.93 261.581 2393.12 256.69 2380.81 256.69ZM2380.81 344.172C2375.42 344.175 2370.09 343.114 2365.11 341.05C2360.14 338.986 2355.62 335.96 2351.81 332.144C2348.01 328.329 2345 323.8 2342.95 318.817C2340.9 313.835 2339.86 308.496 2339.88 303.109C2339.88 297.741 2340.95 292.427 2343.01 287.471C2345.07 282.514 2348.09 278.012 2351.89 274.223C2355.69 270.433 2360.2 267.43 2365.16 265.385C2370.13 263.341 2375.44 262.294 2380.81 262.306C2391.63 262.306 2402.01 266.605 2409.66 274.257C2417.32 281.909 2421.61 292.288 2421.61 303.109C2421.64 308.487 2420.61 313.818 2418.57 318.795C2416.53 323.773 2413.53 328.299 2409.74 332.114C2405.95 335.929 2401.44 338.958 2396.48 341.027C2391.51 343.096 2386.19 344.165 2380.81 344.172Z" fill="#ED1D24"/>
<path fill-rule="evenodd" clip-rule="evenodd" d="M2404.73 290.931C2404.73 286.547 2402.78 281.917 2398.88 279.725C2394.97 277.416 2390.59 277.17 2386.18 277.17H2363.54V329.191H2369.87V305.184H2381.56L2396.41 329.191H2403.99L2388.26 305.184C2397.53 304.938 2404.73 301.164 2404.73 290.931ZM2379.62 300.191H2369.87V281.8H2384.73C2391.19 281.8 2398.26 282.773 2398.26 290.814C2398.27 301.41 2386.91 300.191 2379.62 300.191ZM822.534 1070.76L519.236 922.662C512.569 919.212 509.132 910.393 509.262 904.621L510.066 822.86C510.183 817.101 511.324 811.187 518.886 805.765C551.31 785.092 651.722 729.516 755.454 578.12C893.608 376.479 755.454 207.068 539.534 253.189C347.763 294.147 152.529 397.983 67.8491 454.44C-7.6219 504.75 2.85766 565.54 0.769531 620.051C4.95877 643.099 13.3502 641.011 32.2212 617.95C172.671 487.98 386.503 389.449 426.333 372.679C466.164 355.909 560.506 299.309 671.618 324.458C778.346 348.633 752.406 493.739 719.826 555.06C684.185 622.14 582.515 719.62 536.395 743.731C518.873 752.888 512.297 743.731 512.297 729.049L519.638 413.547C519.638 392.588 510.196 383.146 489.237 390.487L455.697 407.256C432.637 420.888 433.687 426.127 431.586 442.897L426.502 806.621C426.333 814.468 422.676 820.771 418.357 822.626L308.944 884.168C283.796 896.748 290.073 915.619 308.944 921.91L396.996 963.828C417.968 972.206 424.258 978.497 424.258 999.456L421.107 1175.56C499.729 1159.84 504.956 1122.1 507.057 1096.94V1043.48C509.145 1030.89 516.486 1026.71 526.966 1028.81L782.717 1152.49C805.777 1162.98 818.358 1158.76 835.127 1129.44C851.884 1100.11 853.985 1085.45 822.534 1070.76ZM1269.48 626.458C1233.95 646.977 1217.5 685.38 1231.51 709.621C1245.49 733.874 1287.77 737.947 1323.34 717.402C1358.9 696.871 1374.28 659.518 1360.27 635.278C1346.29 611.037 1305.05 605.914 1269.48 626.458Z" fill="#ED1D24"/>
<path fill-rule="evenodd" clip-rule="evenodd" d="M1138.35 652.554C1128.69 664.33 1110.05 700.256 1099.57 722.266C1089.09 744.263 1067.08 794.054 1045.07 794.054C1021.8 794.054 1018.86 736.416 1018.86 715.444C1018.86 694.472 1006.28 691.333 999.986 692.384C993.696 693.434 975.875 699.712 970.636 721.734C965.396 743.744 937.096 839.137 905.644 839.137C885.735 839.137 871.054 781.486 870.016 763.666C868.966 745.858 860.574 731.176 842.754 731.176C830.173 731.176 814.454 737.467 808.163 744.808C801.873 752.149 800.835 763.666 767.283 756.338C736.881 755.287 707.531 771.02 671.903 830.758C650.451 866.723 633.02 933.751 665.613 960.728C696.014 985.877 749.462 940.807 765.194 921.936C780.914 903.078 794.545 889.446 800.835 878.98C807.113 868.487 813.416 869.538 816.555 880.017C819.693 890.51 837.514 931.378 860.587 930.34C883.647 929.29 912.998 911.469 947.588 850.667C953.879 838.086 963.308 839.137 965.409 849.616C967.51 860.109 981.128 894.699 1004.19 894.699C1026.2 894.699 1050.68 859.733 1062.89 839.15C1071.27 825 1083.85 831.822 1083.85 845.44C1083.85 859.058 1077.56 1180.85 1077.56 1180.85C1077.56 1195.52 1083.32 1199.71 1093.8 1199.71H1139.4C1147.78 1199.71 1155.12 1192.38 1155.12 1180.85L1164.55 659.376C1164.56 646.782 1150.41 637.885 1138.35 652.554ZM781.977 857.995C772.535 873.727 747.387 915.645 725.377 908.317C713.847 902.027 729.216 860.096 736.907 845.427C748.438 823.417 782.237 788.36 797.697 797.205C812.378 805.584 791.406 842.275 781.977 857.995ZM2379.06 536.5C2374.88 540.171 2368.06 546.461 2352.86 539.639C2326.65 529.159 2324.56 479.9 2310.94 434.817C2298.69 394.326 2269.19 396.868 2258.53 415.428L2226.56 466.788C2220.79 477.267 2208.22 501.378 2195.63 501.378C2180.96 501.378 2187.52 480.406 2188.31 459.447C2188.82 445.297 2179.91 427.489 2165.24 427.489C2148.47 427.489 2130.66 453.157 2117.03 482.52C2107.51 503.051 2082.96 581.57 2052.03 581.57C2032.12 581.57 2030.02 523.92 2028.98 506.099C2027.94 488.279 2021.64 466.269 2003.83 466.269C1991.77 466.269 1983.92 472.546 1977.62 479.887C1971.34 487.228 1970.31 493.506 1948.28 490.367C1917.88 489.316 1867.57 517.629 1831.93 577.368C1810.48 613.333 1784.66 688.752 1817.26 715.729C1847.66 740.878 1902.15 682.177 1917.88 663.319C1933.59 644.448 1947.22 630.816 1953.52 620.35C1959.8 609.857 1966.09 610.908 1969.23 621.4C1972.37 631.88 1990.2 672.761 2013.26 671.71C2036.34 670.659 2055.18 665.42 2089.78 604.617C2096.06 592.05 2107.59 590.48 2109.69 600.96C2111.79 611.44 2113.89 639.221 2135.9 639.221C2173.62 639.221 2216.38 547.408 2227.09 526.008C2236.52 507.137 2251.71 512.376 2256.96 526.526C2264.46 546.785 2271.1 611.958 2311.98 611.958C2352.86 611.958 2380.63 568.458 2389.01 554.826C2398.46 541.221 2393.55 523.829 2379.06 536.5ZM1934.64 599.391C1925.21 615.11 1904.24 649.7 1882.23 642.359C1870.7 636.069 1885.02 605.681 1892.72 590.999C1904.25 568.989 1938.04 533.426 1953.52 542.259C1968.18 550.65 1944.07 583.658 1934.64 599.391ZM1732.14 544.451C1732.14 544.451 1643.05 479.459 1617.89 450.122C1600.99 430.408 1612.65 415.531 1623.13 407.153C1686.01 365.222 1784.54 300.23 1823.33 199.611C1860.7 102.623 1802.36 18.2803 1760.43 4.64908C1702.97 -14.0144 1581.19 23.5201 1520.38 136.72C1481.02 210.038 1462.76 234.201 1457.51 433.352C1456.5 471.068 1455.41 514.063 1455.41 561.234C1455.41 608.405 1450.17 736.273 1444.91 760.371C1425.01 816.971 1484.76 783.432 1511.99 761.435C1539.26 739.412 1537.14 706.404 1537.14 692.254C1537.14 674.421 1538.21 359.982 1547.63 289.75C1553.51 246.068 1560.23 165.02 1606.32 94.789C1652.46 24.5577 1699.61 52.8707 1712.21 64.3879C1724.78 75.918 1742.61 105.269 1733.15 165.02C1718.51 257.741 1611.56 358.931 1584.3 390.37C1557.06 421.809 1563.35 449.071 1579.09 471.081C1590.25 486.735 1617.87 517.201 1646.17 545.501C1674.47 573.801 1671.31 598.963 1667.14 617.834C1652.44 674.421 1499.41 827.464 1499.41 827.464C1466.91 862.054 1500.45 918.654 1511.98 937.512C1523.54 956.383 1538.19 950.106 1547.62 934.374C1585.36 864.155 1747.82 694.342 1747.82 694.342C1795.05 634.591 1775.11 576.94 1732.14 544.451Z" fill="#ED1D24"/>
</svg>
